<?xml version="1.0" encoding="UTF-8" standalone="no"?>
<svg
   xmlns:dc="http://purl.org/dc/elements/1.1/"
   xmlns:cc="http://creativecommons.org/ns#"
   xmlns:rdf="http://www.w3.org/1999/02/22-rdf-syntax-ns#"
   xmlns:svg="http://www.w3.org/2000/svg"
   xmlns="http://www.w3.org/2000/svg"
   xmlns:xlink="http://www.w3.org/1999/xlink"
   xmlns:sodipodi="http://sodipodi.sourceforge.net/DTD/sodipodi-0.dtd"
   xmlns:inkscape="http://www.inkscape.org/namespaces/inkscape"
   version="1.1"
   id="svg885"
   width="2183.884"
   height="2159.886"
   viewBox="0 0 2183.884 2159.886"
   sodipodi:docname="logo.svg"
   inkscape:version="1.0.2 (e86c870879, 2021-01-15)">
  <metadata
     id="metadata891">
    <rdf:RDF>
      <cc:Work
         rdf:about="">
        <dc:format>image/svg+xml</dc:format>
        <dc:type
           rdf:resource="http://purl.org/dc/dcmitype/StillImage" />
        <dc:title></dc:title>
      </cc:Work>
    </rdf:RDF>
  </metadata>
  <defs
     id="defs889">
    <clipPath
       clipPathUnits="userSpaceOnUse"
       id="clipPath925">
      <circle
         style="fill:none;stroke:#000000;stroke-width:5;stroke-linejoin:round"
         id="circle927"
         cx="873.12219"
         cy="695.42456"
         r="830.06598" />
    </clipPath>
  </defs>
  <sodipodi:namedview
     pagecolor="#ffffff"
     bordercolor="#666666"
     borderopacity="1"
     objecttolerance="10"
     gridtolerance="10"
     guidetolerance="10"
     inkscape:pageopacity="0"
     inkscape:pageshadow="2"
     inkscape:window-width="1920"
     inkscape:window-height="1008"
     id="namedview887"
     showgrid="false"
     fit-margin-top="0"
     fit-margin-left="0"
     fit-margin-right="0"
     fit-margin-bottom="0"
     inkscape:zoom="0.32839518"
     inkscape:cx="551.06242"
     inkscape:cy="1074.7988"
     inkscape:window-x="0"
     inkscape:window-y="50"
     inkscape:window-maximized="1"
     inkscape:current-layer="g893" />
  <g
     inkscape:groupmode="layer"
     inkscape:label="Image"
     id="g893"
     transform="translate(-1366.3286,398.24888)">
    <path
       id="path899-3-6"
       style="fill:#ffbb5c;fill-opacity:1;stroke:#c36400;stroke-width:19.9;stroke-linejoin:round;stroke-miterlimit:4;stroke-dasharray:none;stroke-opacity:1"
       d="m 2454.6094,-388.29297 c -51.009,0.17339 -101.9359,3.90973 -152.3718,11.17887 -36.326,5.23326 -72.5235,12.32948 -108.1281,21.1943 -63.2368,15.74372 -125.0493,37.15389 -184.4858,63.94204 -33.3643,15.0295 -66.0764,31.80928 -97.733,50.12578 -24.4483,14.14432 -48.2597,29.19488 -71.5274,45.19573 -61.8639,42.55727 -119.2902,91.5799 -171.0008,146.068165 -34.8611,36.728151 -67.1585,75.964047 -96.4978,117.277163 -21.0677,29.657895 -40.6912,60.505532 -58.612,92.157922 -14.1354,24.95082 -27.2688,50.50201 -39.3601,76.54558 -16.1577,34.8183 -30.4521,70.56771 -42.7541,106.93903 -3.7782,11.18803 -7.4148,22.5512 -10.8247,33.87328 -8.1559,27.07839 -15.2225,54.44638 -21.1914,82.09766 -9.7933,45.35701 -16.6165,91.45854 -20.3666,137.68883 -3.231,39.70918 -4.209,79.63501 -2.9394,119.46174 1.2285,38.38242 4.5368,76.64704 9.916,114.61915 3.9637,27.99438 9.0493,55.82968 15.2445,83.44177 17.2172,76.75092 43.0385,151.63246 76.7946,222.74576 18.2118,38.3761 38.7501,75.7116 61.4035,111.6294 13.9983,22.2001 28.9163,44.0297 44.5367,65.1605 59.0872,79.9762 129.2948,151.5569 208.0326,212.2846 40.2831,31.078 82.7479,59.2941 126.9732,84.3913 24.7356,14.0369 50.1618,27.1771 75.9392,39.2272 42.4573,19.8633 86.1988,36.9699 130.861,51.1953 29.1073,9.2768 58.6803,17.3405 88.416,24.1283 89.4631,20.4235 181.3559,29.5131 273.1408,27.003 42.8526,-1.1644 85.605,-4.855 128.0105,-11.0339 34.2529,-4.9961 68.3967,-11.6419 102.0016,-19.8659 65.2921,-15.9689 129.0867,-37.9763 190.3485,-65.6977 51.8904,-23.4726 101.9753,-51.066 149.5018,-82.3581 49.1798,-32.3891 95.6631,-68.7428 138.9216,-108.7062 56.5859,-52.2604 107.5657,-110.6464 151.6842,-173.8274 34.7468,-49.7469 65.1888,-102.3492 90.9936,-157.2723 16.315,-34.731 30.7686,-70.3797 43.2377,-106.6893 22.9415,-66.78036 39.2049,-135.86938 48.4294,-205.96561 7.376,-55.99809 10.265,-112.62397 8.6043,-169.15369 -1.238,-42.33051 -5.0243,-84.60415 -11.3182,-126.42355 -5.4033,-35.93504 -12.6433,-71.51399 -21.7133,-106.7294 -16.6285,-64.56563 -39.3689,-127.56462 -67.8135,-187.90218 -22.3867,-47.50382 -48.337,-93.41086 -77.4465,-137.047448 -46.054,-69.086134 -100.2849,-132.851455 -161.0088,-189.448934 -50.5546,-47.144488 -105.7095,-89.428298 -164.3277,-126.048408 -46.6253,-29.12914 -95.495,-54.72186 -146.0341,-76.47614 -57.9901,-24.97093 -118.2584,-44.90715 -179.6716,-59.45756 -49.5761,-11.75438 -100.0798,-20.0478 -150.8173,-24.76492 -34.895,-3.25057 -69.9671,-4.81895 -105.0473,-4.70373 z" />
    <circle
       style="fill:#c36400;fill-opacity:1;stroke:#c36400;stroke-width:4.90399;stroke-linejoin:round;stroke-opacity:1"
       id="path899-3"
       cx="681.69427"
       cy="-2458.2705"
       r="814.12714"
       transform="rotate(90)" />
    <circle
       style="fill:none;fill-opacity:1;stroke:none;stroke-width:3;stroke-linejoin:round;stroke-miterlimit:4;stroke-dasharray:none;stroke-opacity:1"
       id="path966"
       cx="712.45496"
       cy="-2448.2319"
       r="875.96674"
       transform="rotate(90)" />
    <text
       xml:space="preserve"
       style="font-style:normal;font-variant:normal;font-weight:normal;font-stretch:normal;font-size:266.667px;line-height:1.25;font-family:'EB Garamond 12 All SC';-inkscape-font-specification:'EB Garamond 12 All SC, Normal';font-variant-ligatures:normal;font-variant-caps:normal;font-variant-numeric:normal;font-variant-east-asian:normal;text-align:center;letter-spacing:0px;word-spacing:0px;writing-mode:lr-tb;text-anchor:middle;fill:#c36400;fill-opacity:1;stroke:#c36400;stroke-width:12.4896;stroke-miterlimit:4;stroke-dasharray:none;stroke-opacity:1"
       id="text970"
       x="-99.545387"
       y="-9.703701"
       transform="matrix(1.0214191,0,0,1.0214191,-48.155319,-20.897872)"><textPath
         xlink:href="#path966"
         startOffset="50%"
         id="textPath972"
         style="font-style:normal;font-variant:normal;font-weight:normal;font-stretch:normal;font-size:320px;font-family:'EB Garamond 12 All SC';-inkscape-font-specification:'EB Garamond 12 All SC, Normal';font-variant-ligatures:normal;font-variant-caps:normal;font-variant-numeric:normal;font-variant-east-asian:normal;fill:#c36400;fill-opacity:1;stroke:#c36400;stroke-width:12.4896;stroke-miterlimit:4;stroke-dasharray:none;stroke-opacity:1">  J O H N    L A W</textPath></text>
    <path
       style="fill:none;stroke:#ffc878;stroke-width:30;stroke-linecap:butt;stroke-linejoin:miter;stroke-miterlimit:4;stroke-dasharray:none;stroke-opacity:1"
       d="m 1784.5262,1129.7965 c 28.3131,-27.9724 68.2991,-46.8095 118.9656,-70.2142 -179.9848,-165.92883 -118.344,-399.42138 51.0826,-433.92839 -141.6123,-142.05826 -28.9601,-368.87355 185.1445,-356.00509 12.2791,-293.966809 367.509,-364.92901 477.1674,-59.65267 137.2045,-209.222013 468.479,-127.89534 356.2781,169.00371 137.9212,4.34489 201.6061,207.08427 63.9473,295.16906 128.957,73.94209 136.5206,280.54055 -14.5677,373.68408 90.3691,41.4421 99.0705,91.3558 93.5445,113.0132"
       id="path5516"
       sodipodi:nodetypes="ccccccccc" />
    <path
       style="fill:none;stroke:#ffc878;stroke-width:30;stroke-linecap:butt;stroke-linejoin:miter;stroke-miterlimit:4;stroke-dasharray:none;stroke-opacity:1"
       d="m 2800.2133,487.78554 c -75.8437,72.07005 -197.5772,83.71117 -388.2517,4.56767 100.8789,83.84897 13.3122,260.24849 -95.921,269.49238 88.9178,43.8251 148.2285,305.23401 -63.9474,392.81941 116.8607,34.0461 108.2579,269.5743 31.9737,324.3044"
       id="path5518"
       sodipodi:nodetypes="ccccc" />
    <path
       style="fill:none;stroke:#ffc878;stroke-width:30;stroke-linecap:butt;stroke-linejoin:miter;stroke-miterlimit:4;stroke-dasharray:none;stroke-opacity:1"
       d="m 2760.7629,531.73288 223.8157,414.81941 -146.1653,22.83834 36.5413,306.03367 -541.8495,-185.0037"
       id="path5522"
       sodipodi:nodetypes="ccccc" />
    <path
       style="fill:none;stroke:#ffc878;stroke-width:30;stroke-linecap:butt;stroke-linejoin:miter;stroke-miterlimit:4;stroke-dasharray:none;stroke-opacity:1"
       d="m 2678.2133,1208.883 27.4061,257.2217"
       id="path5526"
       sodipodi:nodetypes="cc" />
    <path
       style="fill:#ffc878;fill-opacity:1;stroke:#ffc878;stroke-width:12;stroke-linejoin:round;stroke-miterlimit:4;stroke-dasharray:none;stroke-opacity:1"
       d="m 2268.9946,1475.1664 c -1.6748,-0.5694 -18.8036,-5.3956 -38.0639,-10.7249 -164.9249,-45.6341 -319.532,-153.0243 -426.7265,-296.4044 -27.3242,-36.5482 -34.288,-49.6688 -18.1615,-34.2186 l 8.8337,8.4632 17.4265,-14.194 c 9.8967,-8.061 38.9735,-24.7752 67.2941,-38.6826 27.4272,-13.4686 49.8676,-25.1583 49.8676,-25.977 0,-0.8187 -11.305,-12.7307 -25.1222,-26.4711 -42.1698,-41.93552 -69.9592,-87.89432 -85.0683,-140.68788 -5.6229,-19.64749 -6.8479,-31.27604 -6.7025,-63.6277 0.1538,-34.23662 1.2597,-42.87868 8.1832,-63.94735 22.8942,-69.66969 77.0134,-117.80197 144.07,-128.1323 22.6359,-3.48717 22.7907,-5.31765 2.2244,-26.3051 -24.2422,-24.73873 -42.1809,-53.05063 -50.6315,-79.90973 -8.942,-28.42107 -9.4271,-80.15139 -0.9862,-105.18282 30.4495,-90.29789 107.5165,-143.12025 208.8103,-143.12025 h 29.943 l 2.0285,-22.07706 c 4.6554,-50.66659 12.8516,-80.34268 33.0102,-119.52064 18.3779,-35.71722 58.2536,-75.107024 93.4741,-92.335005 34.393,-16.823257 55.7816,-21.856679 92.8759,-21.856679 34.3055,0 57.3357,4.875683 85.9621,18.198945 62.9208,29.284423 107.7021,82.402239 139.3311,165.269039 6.2327,16.32941 11.8005,29.68984 12.3728,29.68984 0.5724,0 9.5737,-12.45854 20.003,-27.68565 55.8697,-81.57197 148.7405,-121.655147 232.3338,-100.27559 44.3424,11.34088 77.8034,36.74312 96.0728,72.93451 23.6587,46.8677 23.6493,105.09079 -0.027,174.14751 -4.9492,14.43468 -8.9986,27.61904 -8.9986,29.29857 0,1.67956 10.647,3.67006 23.6599,4.42339 108.8581,6.30167 160.7457,151.41979 84.4733,236.25307 -7.4495,8.28563 -22.4943,20.89577 -33.4329,28.02252 -10.9386,7.12678 -19.8883,13.34012 -19.8883,13.80745 0,0.46733 10.1414,7.17054 22.5364,14.89602 40.8522,25.46209 70.4696,65.98114 82.5653,112.95619 6.1045,23.7079 6.2684,70.72735 0.3355,96.2914 -12.977,55.9162 -47.1762,102.2623 -100.4487,136.126 l -23.94,15.218 31.5829,15.3862 c 49.8767,24.2985 81.6359,57.8714 81.7373,86.405 0.021,6.334 1.5134,8.374 6.12,8.374 3.3496,0 6.0572,1.7129 6.0169,3.8064 -0.13,6.7451 -43.0812,57.6174 -79.0996,93.6871 -80.3132,80.4276 -175.2335,142.6452 -280.8359,184.0798 -29.5831,11.6073 -34.4275,12.7567 -35.0152,8.3079 -0.3751,-2.8398 -4.8287,-49.698 -9.8968,-104.1294 -5.0681,-54.4313 -9.8402,-102.6081 -10.6048,-107.0595 l -1.3902,-8.0935 52.3959,18.2823 c 114.76,40.0427 142.1648,49.2171 143.2272,47.949 0.6095,-0.7274 -7.3375,-71.2079 -17.6601,-156.6233 -10.3225,-85.4154 -18.4469,-155.75831 -18.0543,-156.31764 0.3927,-0.5593 33.7619,-6.20207 74.1538,-12.53944 40.3919,-6.33739 74.2531,-12.33583 75.2471,-13.32988 1.463,-1.46296 -204.4718,-387.37837 -224.7556,-421.18505 l -5.7451,-9.57523 15.4046,-11.06707 c 8.4725,-6.0869 16.2095,-13.16484 17.1934,-15.72873 1.7263,-4.49866 -12.5387,-22.56875 -17.8163,-22.56875 -1.347,0 -8.8608,4.89425 -16.6975,10.8761 -71.5491,54.61463 -185.3624,54.58929 -326.9004,-0.0728 -15.3864,-5.9418 -28.34,-10.80332 -28.7868,-10.80332 -0.4467,0 -4.4812,5.54411 -8.9655,12.32024 l -8.1531,12.32028 12.2146,13.87655 c 35.8476,40.72505 34.6371,107.41363 -2.9705,163.64159 -17.9321,26.81072 -33.8928,41.45731 -59.1965,54.3226 -15.38,7.81972 -23.8805,9.77173 -54.0508,12.41197 -19.6903,1.7231 -35.7943,3.93312 -35.7867,4.91115 0.01,0.97803 14.4495,9.10236 32.0932,18.0541 26.9928,13.69506 33.9387,18.76499 43.8047,31.97368 26.4169,35.36696 39.384,74.14737 41.957,125.47946 2.1594,43.08044 -3.9443,75.35009 -20.9932,110.98899 -10.1719,21.2634 -17.1352,30.5986 -39.0115,52.2999 -23.0875,22.9028 -30.8331,28.4186 -58.2336,41.4691 -17.3822,8.279 -36.7427,16.8788 -43.0233,19.1107 -6.2805,2.2319 -11.4191,4.8499 -11.4191,5.8178 0,0.9679 11.9421,5.1095 26.5381,9.2035 30.6741,8.6038 46.0739,18.9891 62.035,41.8353 31.1023,44.519 38.3242,132.425 16.2754,198.1073 -7.725,23.0121 -26.2839,54.6829 -33.715,57.5345 -2.9668,1.1385 -3.2129,3.0722 -0.933,7.3321 3.0649,5.7269 0.5583,7.1033 -7.7757,4.2697 z"
       id="path5605" />
    <path
       style="fill:none;stroke:#c36400;stroke-width:30.2;stroke-linecap:butt;stroke-linejoin:miter;stroke-miterlimit:4;stroke-dasharray:none;stroke-opacity:1"
       d="M 2700.8073,586.89455 2805.8637,522.9472"
       id="path5556"
       sodipodi:nodetypes="cc" />
    <circle
       style="fill:none;fill-opacity:1;stroke:#c36400;stroke-width:30;stroke-linejoin:round;stroke-miterlimit:4;stroke-dasharray:none;stroke-opacity:1"
       id="path899-3-2"
       cx="681.69427"
       cy="-2462.2705"
       r="814.12714"
       transform="rotate(90)" />
    <path
       style="fill:none;fill-opacity:1;stroke:#c36400;stroke-width:10;stroke-linecap:butt;stroke-linejoin:miter;stroke-miterlimit:4;stroke-dasharray:none;stroke-opacity:1"
       d="m 1667.6983,1044.3134 c -55.2764,71.8888 -21.8462,164.7457 37.5797,168.7832 70.8935,-57.0816 14.5581,-152.7793 -37.5797,-168.7832 z"
       id="path5662-7"
       sodipodi:nodetypes="ccc" />
    <path
       style="fill:none;fill-opacity:1;stroke:#c36400;stroke-width:10;stroke-linecap:butt;stroke-linejoin:miter;stroke-miterlimit:4;stroke-dasharray:none;stroke-opacity:1"
       d="m 1452.8754,959.5564 c -11.9264,89.8957 63.4534,153.597 116.9365,127.3806 32.8547,-84.8808 -63.782,-139.5898 -116.9365,-127.3806 z"
       id="path5662-7-4"
       sodipodi:nodetypes="ccc" />
    <path
       style="fill:none;fill-opacity:1;stroke:#c36400;stroke-width:10;stroke-linecap:butt;stroke-linejoin:miter;stroke-miterlimit:4;stroke-dasharray:none;stroke-opacity:1"
       d="m 1527.8534,748.23352 c -55.2764,71.88883 -21.8462,164.74566 37.5797,168.78317 70.8934,-57.0816 14.5581,-152.77931 -37.5797,-168.78317 z"
       id="path5662-7-9"
       sodipodi:nodetypes="ccc" />
    <path
       style="fill:none;stroke:#c36400;stroke-width:10;stroke-linecap:butt;stroke-linejoin:miter;stroke-miterlimit:4;stroke-dasharray:none;stroke-opacity:1"
       d="m 1565.4331,917.01669 c 50.1509,68.52331 56.0216,213.91881 33.7746,269.24881"
       id="path5731"
       sodipodi:nodetypes="cc" />
    <path
       style="fill:none;stroke:#c36400;stroke-width:10;stroke-linecap:butt;stroke-linejoin:miter;stroke-miterlimit:4;stroke-dasharray:none;stroke-opacity:1"
       d="m 1569.8119,1086.937 c 29.6278,288.0305 382.0344,117.9418 337.1532,320.3991"
       id="path5735"
       sodipodi:nodetypes="cc" />
    <path
       style="fill:none;stroke:#c36400;stroke-width:10;stroke-linecap:butt;stroke-linejoin:miter;stroke-miterlimit:4;stroke-dasharray:none;stroke-opacity:1"
       d="m 1908.1834,1402.0138 c -55.4339,237.6868 235.2083,224.7466 295.5037,167.2922"
       id="path5737"
       sodipodi:nodetypes="cc" />
    <path
       style="fill:none;stroke:#c36400;stroke-width:10;stroke-linecap:butt;stroke-linejoin:miter;stroke-miterlimit:4;stroke-dasharray:none;stroke-opacity:1"
       d="m 2010.8016,1549.4115 c 11.852,62.7072 50.9978,54.5188 50.9978,54.5188"
       id="path5739"
       sodipodi:nodetypes="cc" />
    <path
       style="fill:none;stroke:#c36400;stroke-width:10;stroke-linecap:butt;stroke-linejoin:miter;stroke-miterlimit:4;stroke-dasharray:none;stroke-opacity:1"
       d="m 1704.2781,1211.3646 c 20.042,40.4765 43.0628,64.5378 83.0633,72.1659"
       id="path5741"
       sodipodi:nodetypes="cc" />
    <path
       style="fill:none;stroke:#c36400;stroke-width:10;stroke-linecap:butt;stroke-linejoin:miter;stroke-miterlimit:4;stroke-dasharray:none;stroke-opacity:1"
       d="m 1863.5202,1401.6208 c 30.7485,-7.3476 35.5578,28.3222 37.475,62.4478"
       id="path5743"
       sodipodi:nodetypes="cc" />
    <path
       style="fill:none;stroke:#c36400;stroke-width:10;stroke-linecap:butt;stroke-linejoin:miter;stroke-miterlimit:4;stroke-dasharray:none;stroke-opacity:1"
       d="m 1527.8534,748.23352 c -18.155,69.01283 -9.4409,126.85842 37.5797,168.78317"
       id="path5745"
       sodipodi:nodetypes="cc" />
    <path
       style="fill:none;stroke:#c36400;stroke-width:10;stroke-linecap:butt;stroke-linejoin:miter;stroke-miterlimit:4;stroke-dasharray:none;stroke-opacity:1"
       d="m 1452.8754,959.5564 c 58.3314,24.5368 108.4677,56.6636 116.9365,127.3806"
       id="path5747"
       sodipodi:nodetypes="cc" />
    <path
       style="fill:none;stroke:#c36400;stroke-width:10;stroke-linecap:butt;stroke-linejoin:miter;stroke-miterlimit:4;stroke-dasharray:none;stroke-opacity:1"
       d="m 1667.6983,1044.3134 c -11.8568,51.5991 -9.4097,115.4154 37.5797,168.7832"
       id="path5749"
       sodipodi:nodetypes="cc" />
    <path
       style="fill:#c36400;fill-opacity:1;stroke:#c36400;stroke-width:12.1804;stroke-linejoin:round;stroke-miterlimit:4;stroke-dasharray:none;stroke-opacity:1"
       d="m 1703.7654,1202.8561 c -1.3094,-1.0133 -7.4886,-10.7603 -13.7315,-21.6602 -9.0063,-15.7253 -12.1259,-22.5193 -15.1034,-32.8978 -4.7473,-16.5472 -7.6223,-36.7549 -7.5411,-53.0043 0.085,-17.0678 3.3926,-43.0241 5.474,-42.9616 3.33,0.1 19.0721,11.4942 27.4185,19.846 11.1934,11.2007 25.0529,34.4949 28.919,48.6055 6.679,24.3771 3.1503,50.3044 -9.2795,68.1826 -8.6402,12.4274 -13.0956,16.2579 -16.156,13.8898 z"
       id="path5759" />
    <path
       style="fill:#c36400;fill-opacity:1;stroke:#c36400;stroke-width:12.1804;stroke-linejoin:round;stroke-miterlimit:4;stroke-dasharray:none;stroke-opacity:1"
       d="m 1547.3952,1086.9163 c -20.2368,1.2194 -42.9639,-9.433 -60.2028,-28.2176 -10.7196,-11.6811 -23.205,-35.609 -26.5857,-50.9517 -2.3899,-10.8457 -4.0022,-29.7059 -3.1447,-36.7858 0.4229,-3.4903 1.3755,-3.2302 16.9606,4.631 21.3421,10.7652 39.06,22.5901 52.0232,34.7202 9.1613,8.5725 11.5995,11.8405 21.0117,28.1637 9.0462,15.6885 11.0863,20.328 13.5631,30.8474 3.513,14.9196 2.1803,16.6403 -13.6254,17.5928 z"
       id="path5761" />
    <path
       style="fill:#c36400;fill-opacity:1;stroke:#c36400;stroke-width:12.1804;stroke-linejoin:round;stroke-miterlimit:4;stroke-dasharray:none;stroke-opacity:1"
       d="m 1561.4817,905.27372 c -25.6484,-24.77403 -39.154,-64.64085 -36.2854,-107.11098 1.1542,-17.08848 5.4762,-41.13119 7.4709,-41.55958 2.936,-0.6305 19.8719,11.53135 28.6291,20.55894 16.7526,17.27011 30.5674,46.58493 31.7573,67.38815 1.3379,23.39292 -7.4619,45.83176 -24.4134,62.25283 -2.4716,2.39425 -3.274,2.22278 -7.1585,-1.52936 z"
       id="path5763" />
    <path
       style="fill:none;fill-opacity:1;stroke:#c36400;stroke-width:10;stroke-linecap:butt;stroke-linejoin:miter;stroke-miterlimit:4;stroke-dasharray:none;stroke-opacity:1"
       d="m 1692.8,1363.937 c 71.8888,-55.2764 164.7457,-21.8462 168.7832,37.5796 -57.0815,70.8935 -152.7793,14.5582 -168.7832,-37.5796 z"
       id="path5662-7-5"
       sodipodi:nodetypes="ccc" />
    <path
       style="fill:#c36400;fill-opacity:1;stroke:#c36400;stroke-width:12.1804;stroke-linejoin:round;stroke-miterlimit:4;stroke-dasharray:none;stroke-opacity:1"
       d="m 1851.3426,1400.0041 c -1.0131,-1.3094 -10.7603,-7.4887 -21.6602,-13.7316 -15.7253,-9.0063 -22.5193,-12.1258 -32.8979,-15.1033 -16.547,-4.7473 -36.7549,-7.6223 -53.0042,-7.5412 -17.0677,0.085 -43.0241,3.3927 -42.9616,5.4741 0.1,3.33 11.4943,19.0722 19.846,27.4185 11.2042,11.19 34.495,25.053 48.6054,28.919 24.3773,6.6789 50.3047,3.1503 68.1828,-9.2794 12.4273,-8.6403 16.2578,-13.0958 13.8897,-16.1561 z"
       id="path5759-4" />
    <path
       style="fill:none;fill-opacity:1;stroke:#c36400;stroke-width:10;stroke-linecap:butt;stroke-linejoin:miter;stroke-miterlimit:4;stroke-dasharray:none;stroke-opacity:1"
       d="m 1975.2013,1382.6433 c -55.2765,71.8887 -21.8463,164.7456 37.5797,168.7831 70.8934,-57.0817 14.5581,-152.7794 -37.5797,-168.7831 z"
       id="path5662-7-6"
       sodipodi:nodetypes="ccc" />
    <path
       style="fill:#c36400;fill-opacity:1;stroke:#c36400;stroke-width:12.1804;stroke-linejoin:round;stroke-miterlimit:4;stroke-dasharray:none;stroke-opacity:1"
       d="m 2011.2683,1541.1858 c -1.3093,-1.0132 -7.4886,-10.7603 -13.7315,-21.6601 -9.0063,-15.7254 -12.1259,-22.5194 -15.1034,-32.8979 -4.7472,-16.5471 -7.6223,-36.7549 -7.541,-53.0043 0.085,-17.0677 3.3925,-43.024 5.474,-42.9616 3.33,0.1 19.072,11.4943 27.4184,19.846 11.1934,11.2008 25.0529,34.495 28.9191,48.6055 6.679,24.3772 3.1502,50.3045 -9.2795,68.1827 -8.6402,12.4274 -13.0957,16.2579 -16.1561,13.8897 z"
       id="path5759-42" />
    <path
       style="fill:none;fill-opacity:1;stroke:#c36400;stroke-width:10;stroke-linecap:butt;stroke-linejoin:miter;stroke-miterlimit:4;stroke-dasharray:none;stroke-opacity:1"
       d="m 3246.5099,1052.6135 c 55.2764,71.8888 21.8462,164.7457 -37.5797,168.7832 -70.8935,-57.0816 -14.5581,-152.7793 37.5797,-168.7832 z"
       id="path5662-7-2"
       sodipodi:nodetypes="ccc" />
    <path
       style="fill:none;fill-opacity:1;stroke:#c36400;stroke-width:10;stroke-linecap:butt;stroke-linejoin:miter;stroke-miterlimit:4;stroke-dasharray:none;stroke-opacity:1"
       d="m 3461.3328,967.8565 c 11.9264,89.8957 -63.4534,153.597 -116.9365,127.3806 -32.8547,-84.8808 63.782,-139.5898 116.9365,-127.3806 z"
       id="path5662-7-4-2"
       sodipodi:nodetypes="ccc" />
    <path
       style="fill:none;fill-opacity:1;stroke:#c36400;stroke-width:10;stroke-linecap:butt;stroke-linejoin:miter;stroke-miterlimit:4;stroke-dasharray:none;stroke-opacity:1"
       d="m 3386.3548,756.5336 c 55.2764,71.8889 21.8462,164.7457 -37.5797,168.7832 -70.8934,-57.0816 -14.5581,-152.7793 37.5797,-168.7832 z"
       id="path5662-7-9-0"
       sodipodi:nodetypes="ccc" />
    <path
       style="fill:none;stroke:#c36400;stroke-width:10;stroke-linecap:butt;stroke-linejoin:miter;stroke-miterlimit:4;stroke-dasharray:none;stroke-opacity:1"
       d="m 3348.7751,925.3168 c -50.1509,68.5233 -56.0216,213.9188 -33.7746,269.2488"
       id="path5731-6"
       sodipodi:nodetypes="cc" />
    <path
       style="fill:none;stroke:#c36400;stroke-width:10;stroke-linecap:butt;stroke-linejoin:miter;stroke-miterlimit:4;stroke-dasharray:none;stroke-opacity:1"
       d="m 3344.3963,1095.2371 c -29.6278,288.0305 -382.0344,117.9418 -337.1532,320.3991"
       id="path5735-3"
       sodipodi:nodetypes="cc" />
    <path
       style="fill:none;stroke:#c36400;stroke-width:10;stroke-linecap:butt;stroke-linejoin:miter;stroke-miterlimit:4;stroke-dasharray:none;stroke-opacity:1"
       d="m 3006.0248,1410.3139 c 55.4339,237.6868 -235.2083,224.7466 -295.5037,167.2922"
       id="path5737-6"
       sodipodi:nodetypes="cc" />
    <path
       style="fill:none;stroke:#c36400;stroke-width:10;stroke-linecap:butt;stroke-linejoin:miter;stroke-miterlimit:4;stroke-dasharray:none;stroke-opacity:1"
       d="m 2903.4066,1557.7116 c -11.852,62.7072 -50.9978,54.5188 -50.9978,54.5188"
       id="path5739-1"
       sodipodi:nodetypes="cc" />
    <path
       style="fill:none;stroke:#c36400;stroke-width:10;stroke-linecap:butt;stroke-linejoin:miter;stroke-miterlimit:4;stroke-dasharray:none;stroke-opacity:1"
       d="m 3209.9301,1219.6647 c -20.042,40.4765 -43.0628,64.5378 -83.0633,72.1659"
       id="path5741-0"
       sodipodi:nodetypes="cc" />
    <path
       style="fill:none;stroke:#c36400;stroke-width:10;stroke-linecap:butt;stroke-linejoin:miter;stroke-miterlimit:4;stroke-dasharray:none;stroke-opacity:1"
       d="m 3050.688,1409.9209 c -30.7485,-7.3476 -35.5578,28.3222 -37.475,62.4478"
       id="path5743-5"
       sodipodi:nodetypes="cc" />
    <path
       style="fill:none;stroke:#c36400;stroke-width:10;stroke-linecap:butt;stroke-linejoin:miter;stroke-miterlimit:4;stroke-dasharray:none;stroke-opacity:1"
       d="m 3386.3548,756.5336 c 18.155,69.0129 9.4409,126.8585 -37.5797,168.7832"
       id="path5745-7"
       sodipodi:nodetypes="cc" />
    <path
       style="fill:none;stroke:#c36400;stroke-width:10;stroke-linecap:butt;stroke-linejoin:miter;stroke-miterlimit:4;stroke-dasharray:none;stroke-opacity:1"
       d="m 3461.3328,967.8565 c -58.3314,24.5368 -108.4677,56.6636 -116.9365,127.3806"
       id="path5747-4"
       sodipodi:nodetypes="cc" />
    <path
       style="fill:none;stroke:#c36400;stroke-width:10;stroke-linecap:butt;stroke-linejoin:miter;stroke-miterlimit:4;stroke-dasharray:none;stroke-opacity:1"
       d="m 3246.5099,1052.6135 c 11.8568,51.5991 9.4097,115.4154 -37.5797,168.7832"
       id="path5749-2"
       sodipodi:nodetypes="cc" />
    <path
       style="fill:#c36400;fill-opacity:1;stroke:#c36400;stroke-width:12.1804;stroke-linejoin:round;stroke-miterlimit:4;stroke-dasharray:none;stroke-opacity:1"
       d="m 3210.4428,1211.1562 c 1.3094,-1.0133 7.4886,-10.7603 13.7315,-21.6602 9.0063,-15.7253 12.1259,-22.5193 15.1034,-32.8978 4.7473,-16.5472 7.6223,-36.7549 7.5411,-53.0043 -0.085,-17.0678 -3.3926,-43.0241 -5.474,-42.9616 -3.33,0.1 -19.0721,11.4942 -27.4185,19.846 -11.1934,11.2007 -25.0529,34.4949 -28.919,48.6055 -6.679,24.3771 -3.1503,50.3044 9.2795,68.1826 8.6402,12.4274 13.0956,16.2579 16.156,13.8898 z"
       id="path5759-0" />
    <path
       style="fill:#c36400;fill-opacity:1;stroke:#c36400;stroke-width:12.1804;stroke-linejoin:round;stroke-miterlimit:4;stroke-dasharray:none;stroke-opacity:1"
       d="m 3366.813,1095.2164 c 20.2368,1.2194 42.9639,-9.433 60.2028,-28.2176 10.7196,-11.6811 23.205,-35.609 26.5857,-50.9517 2.3899,-10.8457 4.0022,-29.7059 3.1447,-36.7858 -0.4229,-3.4903 -1.3755,-3.2302 -16.9606,4.631 -21.3421,10.7652 -39.06,22.5901 -52.0232,34.7202 -9.1613,8.5725 -11.5995,11.8405 -21.0117,28.1637 -9.0462,15.6885 -11.0863,20.328 -13.5631,30.8474 -3.513,14.9196 -2.1803,16.6403 13.6254,17.5928 z"
       id="path5761-0" />
    <path
       style="fill:#c36400;fill-opacity:1;stroke:#c36400;stroke-width:12.1804;stroke-linejoin:round;stroke-miterlimit:4;stroke-dasharray:none;stroke-opacity:1"
       d="m 3352.7265,913.5739 c 25.6484,-24.7741 39.154,-64.6409 36.2854,-107.111 -1.1542,-17.0885 -5.4762,-41.1312 -7.4709,-41.5596 -2.936,-0.6305 -19.8719,11.5313 -28.6291,20.5589 -16.7526,17.2701 -30.5674,46.585 -31.7573,67.3882 -1.3379,23.3929 7.4619,45.8317 24.4134,62.2528 2.4716,2.3943 3.274,2.2228 7.1585,-1.5293 z"
       id="path5763-3" />
    <path
       style="fill:none;fill-opacity:1;stroke:#c36400;stroke-width:10;stroke-linecap:butt;stroke-linejoin:miter;stroke-miterlimit:4;stroke-dasharray:none;stroke-opacity:1"
       d="m 3221.4082,1372.2371 c -71.8888,-55.2764 -164.7457,-21.8462 -168.7832,37.5796 57.0815,70.8935 152.7793,14.5582 168.7832,-37.5796 z"
       id="path5662-7-5-3"
       sodipodi:nodetypes="ccc" />
    <path
       style="fill:#c36400;fill-opacity:1;stroke:#c36400;stroke-width:12.1804;stroke-linejoin:round;stroke-miterlimit:4;stroke-dasharray:none;stroke-opacity:1"
       d="m 3062.8656,1408.3042 c 1.0131,-1.3094 10.7603,-7.4887 21.6602,-13.7316 15.7253,-9.0063 22.5193,-12.1258 32.8979,-15.1033 16.547,-4.7473 36.7549,-7.6223 53.0042,-7.5412 17.0677,0.085 43.0241,3.3927 42.9616,5.4741 -0.1,3.33 -11.4943,19.0722 -19.846,27.4185 -11.2042,11.19 -34.495,25.053 -48.6054,28.919 -24.3773,6.6789 -50.3047,3.1503 -68.1828,-9.2794 -12.4273,-8.6403 -16.2578,-13.0958 -13.8897,-16.1561 z"
       id="path5759-4-9" />
    <path
       style="fill:none;fill-opacity:1;stroke:#c36400;stroke-width:10;stroke-linecap:butt;stroke-linejoin:miter;stroke-miterlimit:4;stroke-dasharray:none;stroke-opacity:1"
       d="m 2939.0069,1390.9434 c 55.2765,71.8887 21.8463,164.7456 -37.5797,168.7831 -70.8934,-57.0817 -14.5581,-152.7794 37.5797,-168.7831 z"
       id="path5662-7-6-0"
       sodipodi:nodetypes="ccc" />
    <path
       style="fill:#c36400;fill-opacity:1;stroke:#c36400;stroke-width:12.1804;stroke-linejoin:round;stroke-miterlimit:4;stroke-dasharray:none;stroke-opacity:1"
       d="m 2902.9399,1549.4859 c 1.3093,-1.0132 7.4886,-10.7603 13.7315,-21.6601 9.0063,-15.7254 12.1259,-22.5194 15.1034,-32.8979 4.7472,-16.5471 7.6223,-36.7549 7.541,-53.0043 -0.085,-17.0677 -3.3925,-43.024 -5.474,-42.9616 -3.33,0.1 -19.072,11.4943 -27.4184,19.846 -11.1934,11.2008 -25.0529,34.495 -28.9191,48.6055 -6.679,24.3772 -3.1502,50.3045 9.2795,68.1827 8.6402,12.4274 13.0957,16.2579 16.1561,13.8897 z"
       id="path5759-42-4" />
  </g>
</svg>
