<?xml version="1.0" encoding="UTF-8" standalone="no"?>
<svg
   xmlns:dc="http://purl.org/dc/elements/1.1/"
   xmlns:cc="http://creativecommons.org/ns#"
   xmlns:rdf="http://www.w3.org/1999/02/22-rdf-syntax-ns#"
   xmlns:svg="http://www.w3.org/2000/svg"
   xmlns="http://www.w3.org/2000/svg"
   xmlns:xlink="http://www.w3.org/1999/xlink"
   xmlns:sodipodi="http://sodipodi.sourceforge.net/DTD/sodipodi-0.dtd"
   xmlns:inkscape="http://www.inkscape.org/namespaces/inkscape"
   version="1.1"
   id="svg885"
   width="2183.884"
   height="2159.886"
   viewBox="0 0 2183.884 2159.886"
   sodipodi:docname="coin.svg"
   inkscape:version="1.0.2 (e86c870879, 2021-01-15)">
  <metadata
     id="metadata891">
    <rdf:RDF>
      <cc:Work
         rdf:about="">
        <dc:format>image/svg+xml</dc:format>
        <dc:type
           rdf:resource="http://purl.org/dc/dcmitype/StillImage" />
        <dc:title />
      </cc:Work>
    </rdf:RDF>
  </metadata>
  <defs
     id="defs889">
    <clipPath
       clipPathUnits="userSpaceOnUse"
       id="clipPath925">
      <circle
         style="fill:none;stroke:#000000;stroke-width:5;stroke-linejoin:round"
         id="circle927"
         cx="873.12219"
         cy="695.42456"
         r="830.06598" />
    </clipPath>
  </defs>
  <sodipodi:namedview
     pagecolor="#ffffff"
     bordercolor="#666666"
     borderopacity="1"
     objecttolerance="10"
     gridtolerance="10"
     guidetolerance="10"
     inkscape:pageopacity="0"
     inkscape:pageshadow="2"
     inkscape:window-width="1920"
     inkscape:window-height="1008"
     id="namedview887"
     showgrid="false"
     fit-margin-top="0"
     fit-margin-left="0"
     fit-margin-right="0"
     fit-margin-bottom="0"
     inkscape:zoom="0.32839518"
     inkscape:cx="551.06242"
     inkscape:cy="1074.7988"
     inkscape:window-x="0"
     inkscape:window-y="50"
     inkscape:window-maximized="1"
     inkscape:current-layer="g893"
     inkscape:document-rotation="0" />
  <g
     inkscape:groupmode="layer"
     inkscape:label="Image"
     id="g893"
     transform="translate(-1366.3286,398.24888)">
    <path
       id="path899-3-6"
       style="fill:#ffbb5c;fill-opacity:1;stroke:#c36400;stroke-width:19.9;stroke-linejoin:round;stroke-miterlimit:4;stroke-dasharray:none;stroke-opacity:1"
       d="m 2454.6094,-388.29297 c -51.009,0.17339 -101.9359,3.90973 -152.3718,11.17887 -36.326,5.23326 -72.5235,12.32948 -108.1281,21.1943 -63.2368,15.74372 -125.0493,37.15389 -184.4858,63.94204 -33.3643,15.0295 -66.0764,31.80928 -97.733,50.12578 -24.4483,14.14432 -48.2597,29.19488 -71.5274,45.19573 -61.8639,42.55727 -119.2902,91.5799 -171.0008,146.068165 -34.8611,36.728151 -67.1585,75.964047 -96.4978,117.277163 -21.0677,29.657895 -40.6912,60.505532 -58.612,92.157922 -14.1354,24.95082 -27.2688,50.50201 -39.3601,76.54558 -16.1577,34.8183 -30.4521,70.56771 -42.7541,106.93903 -3.7782,11.18803 -7.4148,22.5512 -10.8247,33.87328 -8.1559,27.07839 -15.2225,54.44638 -21.1914,82.09766 -9.7933,45.35701 -16.6165,91.45854 -20.3666,137.68883 -3.231,39.70918 -4.209,79.63501 -2.9394,119.46174 1.2285,38.38242 4.5368,76.64704 9.916,114.61915 3.9637,27.99438 9.0493,55.82968 15.2445,83.44177 17.2172,76.75092 43.0385,151.63246 76.7946,222.74576 18.2118,38.3761 38.7501,75.7116 61.4035,111.6294 13.9983,22.2001 28.9163,44.0297 44.5367,65.1605 59.0872,79.9762 129.2948,151.5569 208.0326,212.2846 40.2831,31.078 82.7479,59.2941 126.9732,84.3913 24.7356,14.0369 50.1618,27.1771 75.9392,39.2272 42.4573,19.8633 86.1988,36.9699 130.861,51.1953 29.1073,9.2768 58.6803,17.3405 88.416,24.1283 89.4631,20.4235 181.3559,29.5131 273.1408,27.003 42.8526,-1.1644 85.605,-4.855 128.0105,-11.0339 34.2529,-4.9961 68.3967,-11.6419 102.0016,-19.8659 65.2921,-15.9689 129.0867,-37.9763 190.3485,-65.6977 51.8904,-23.4726 101.9753,-51.066 149.5018,-82.3581 49.1798,-32.3891 95.6631,-68.7428 138.9216,-108.7062 56.5859,-52.2604 107.5657,-110.6464 151.6842,-173.8274 34.7468,-49.7469 65.1888,-102.3492 90.9936,-157.2723 16.315,-34.731 30.7686,-70.3797 43.2377,-106.6893 22.9415,-66.78036 39.2049,-135.86938 48.4294,-205.96561 7.376,-55.99809 10.265,-112.62397 8.6043,-169.15369 -1.238,-42.33051 -5.0243,-84.60415 -11.3182,-126.42355 -5.4033,-35.93504 -12.6433,-71.51399 -21.7133,-106.7294 -16.6285,-64.56563 -39.3689,-127.56462 -67.8135,-187.90218 -22.3867,-47.50382 -48.337,-93.41086 -77.4465,-137.047448 -46.054,-69.086134 -100.2849,-132.851455 -161.0088,-189.448934 -50.5546,-47.144488 -105.7095,-89.428298 -164.3277,-126.048408 -46.6253,-29.12914 -95.495,-54.72186 -146.0341,-76.47614 -57.9901,-24.97093 -118.2584,-44.90715 -179.6716,-59.45756 -49.5761,-11.75438 -100.0798,-20.0478 -150.8173,-24.76492 -34.895,-3.25057 -69.9671,-4.81895 -105.0473,-4.70373 z" />
    <circle
       style="fill:none;fill-opacity:1;stroke:none;stroke-width:3;stroke-linejoin:round;stroke-miterlimit:4;stroke-dasharray:none;stroke-opacity:1"
       id="path966"
       cx="712.45496"
       cy="-2448.2319"
       r="875.96674"
       transform="rotate(90)" />
    <text
       xml:space="preserve"
       style="font-style:normal;font-variant:normal;font-weight:normal;font-stretch:normal;font-size:266.667px;line-height:1.25;font-family:'EB Garamond 12 All SC';-inkscape-font-specification:'EB Garamond 12 All SC, Normal';font-variant-ligatures:normal;font-variant-caps:normal;font-variant-numeric:normal;font-variant-east-asian:normal;text-align:center;letter-spacing:0px;word-spacing:0px;writing-mode:lr-tb;text-anchor:middle;fill:#c36400;fill-opacity:1;stroke:#c36400;stroke-width:12.4896;stroke-miterlimit:4;stroke-dasharray:none;stroke-opacity:1"
       id="text970"
       x="-99.545387"
       y="-9.703701"
       transform="matrix(1.0421569,0,0,1.0421569,-105.76556,-14.3092)"><textPath
         xlink:href="#path966"
         startOffset="50%"
         id="textPath972"
         style="font-style:normal;font-variant:normal;font-weight:normal;font-stretch:normal;font-size:320px;font-family:'EB Garamond 12 All SC';-inkscape-font-specification:'EB Garamond 12 All SC, Normal';font-variant-ligatures:normal;font-variant-caps:normal;font-variant-numeric:normal;font-variant-east-asian:normal;fill:#c36400;fill-opacity:1;stroke:#c36400;stroke-width:12.4896;stroke-miterlimit:4;stroke-dasharray:none;stroke-opacity:1">  J O H N    L A W</textPath></text>
    <path
       style="fill:none;fill-opacity:1;stroke:#c36400;stroke-width:10;stroke-linecap:butt;stroke-linejoin:miter;stroke-miterlimit:4;stroke-dasharray:none;stroke-opacity:1"
       d="m 1667.6983,1044.3134 c -55.2764,71.8888 -21.8462,164.7457 37.5797,168.7832 70.8935,-57.0816 14.5581,-152.7793 -37.5797,-168.7832 z"
       id="path5662-7"
       sodipodi:nodetypes="ccc" />
    <path
       style="fill:none;fill-opacity:1;stroke:#c36400;stroke-width:10;stroke-linecap:butt;stroke-linejoin:miter;stroke-miterlimit:4;stroke-dasharray:none;stroke-opacity:1"
       d="m 1452.8754,959.5564 c -11.9264,89.8957 63.4534,153.597 116.9365,127.3806 32.8547,-84.8808 -63.782,-139.5898 -116.9365,-127.3806 z"
       id="path5662-7-4"
       sodipodi:nodetypes="ccc" />
    <path
       style="fill:none;fill-opacity:1;stroke:#c36400;stroke-width:10;stroke-linecap:butt;stroke-linejoin:miter;stroke-miterlimit:4;stroke-dasharray:none;stroke-opacity:1"
       d="m 1527.8534,748.23352 c -55.2764,71.88883 -21.8462,164.74566 37.5797,168.78317 70.8934,-57.0816 14.5581,-152.77931 -37.5797,-168.78317 z"
       id="path5662-7-9"
       sodipodi:nodetypes="ccc" />
    <path
       style="fill:none;stroke:#c36400;stroke-width:10;stroke-linecap:butt;stroke-linejoin:miter;stroke-miterlimit:4;stroke-dasharray:none;stroke-opacity:1"
       d="m 1565.4331,917.01669 c 50.1509,68.52331 56.0216,213.91881 33.7746,269.24881"
       id="path5731"
       sodipodi:nodetypes="cc" />
    <path
       style="fill:none;stroke:#c36400;stroke-width:10;stroke-linecap:butt;stroke-linejoin:miter;stroke-miterlimit:4;stroke-dasharray:none;stroke-opacity:1"
       d="m 1569.8119,1086.937 c 29.6278,288.0305 382.0344,117.9418 337.1532,320.3991"
       id="path5735"
       sodipodi:nodetypes="cc" />
    <path
       style="fill:none;stroke:#c36400;stroke-width:10;stroke-linecap:butt;stroke-linejoin:miter;stroke-miterlimit:4;stroke-dasharray:none;stroke-opacity:1"
       d="m 1908.1834,1402.0138 c -55.4339,237.6868 235.2083,224.7466 295.5037,167.2922"
       id="path5737"
       sodipodi:nodetypes="cc" />
    <path
       style="fill:none;stroke:#c36400;stroke-width:10;stroke-linecap:butt;stroke-linejoin:miter;stroke-miterlimit:4;stroke-dasharray:none;stroke-opacity:1"
       d="m 2010.8016,1549.4115 c 11.852,62.7072 50.9978,54.5188 50.9978,54.5188"
       id="path5739"
       sodipodi:nodetypes="cc" />
    <path
       style="fill:none;stroke:#c36400;stroke-width:10;stroke-linecap:butt;stroke-linejoin:miter;stroke-miterlimit:4;stroke-dasharray:none;stroke-opacity:1"
       d="m 1704.2781,1211.3646 c 20.042,40.4765 43.0628,64.5378 83.0633,72.1659"
       id="path5741"
       sodipodi:nodetypes="cc" />
    <path
       style="fill:none;stroke:#c36400;stroke-width:10;stroke-linecap:butt;stroke-linejoin:miter;stroke-miterlimit:4;stroke-dasharray:none;stroke-opacity:1"
       d="m 1863.5202,1401.6208 c 30.7485,-7.3476 35.5578,28.3222 37.475,62.4478"
       id="path5743"
       sodipodi:nodetypes="cc" />
    <path
       style="fill:none;stroke:#c36400;stroke-width:10;stroke-linecap:butt;stroke-linejoin:miter;stroke-miterlimit:4;stroke-dasharray:none;stroke-opacity:1"
       d="m 1527.8534,748.23352 c -18.155,69.01283 -9.4409,126.85842 37.5797,168.78317"
       id="path5745"
       sodipodi:nodetypes="cc" />
    <path
       style="fill:none;stroke:#c36400;stroke-width:10;stroke-linecap:butt;stroke-linejoin:miter;stroke-miterlimit:4;stroke-dasharray:none;stroke-opacity:1"
       d="m 1452.8754,959.5564 c 58.3314,24.5368 108.4677,56.6636 116.9365,127.3806"
       id="path5747"
       sodipodi:nodetypes="cc" />
    <path
       style="fill:none;stroke:#c36400;stroke-width:10;stroke-linecap:butt;stroke-linejoin:miter;stroke-miterlimit:4;stroke-dasharray:none;stroke-opacity:1"
       d="m 1667.6983,1044.3134 c -11.8568,51.5991 -9.4097,115.4154 37.5797,168.7832"
       id="path5749"
       sodipodi:nodetypes="cc" />
    <path
       style="fill:#c36400;fill-opacity:1;stroke:#c36400;stroke-width:12.1804;stroke-linejoin:round;stroke-miterlimit:4;stroke-dasharray:none;stroke-opacity:1"
       d="m 1703.7654,1202.8561 c -1.3094,-1.0133 -7.4886,-10.7603 -13.7315,-21.6602 -9.0063,-15.7253 -12.1259,-22.5193 -15.1034,-32.8978 -4.7473,-16.5472 -7.6223,-36.7549 -7.5411,-53.0043 0.085,-17.0678 3.3926,-43.0241 5.474,-42.9616 3.33,0.1 19.0721,11.4942 27.4185,19.846 11.1934,11.2007 25.0529,34.4949 28.919,48.6055 6.679,24.3771 3.1503,50.3044 -9.2795,68.1826 -8.6402,12.4274 -13.0956,16.2579 -16.156,13.8898 z"
       id="path5759" />
    <path
       style="fill:#c36400;fill-opacity:1;stroke:#c36400;stroke-width:12.1804;stroke-linejoin:round;stroke-miterlimit:4;stroke-dasharray:none;stroke-opacity:1"
       d="m 1547.3952,1086.9163 c -20.2368,1.2194 -42.9639,-9.433 -60.2028,-28.2176 -10.7196,-11.6811 -23.205,-35.609 -26.5857,-50.9517 -2.3899,-10.8457 -4.0022,-29.7059 -3.1447,-36.7858 0.4229,-3.4903 1.3755,-3.2302 16.9606,4.631 21.3421,10.7652 39.06,22.5901 52.0232,34.7202 9.1613,8.5725 11.5995,11.8405 21.0117,28.1637 9.0462,15.6885 11.0863,20.328 13.5631,30.8474 3.513,14.9196 2.1803,16.6403 -13.6254,17.5928 z"
       id="path5761" />
    <path
       style="fill:#c36400;fill-opacity:1;stroke:#c36400;stroke-width:12.1804;stroke-linejoin:round;stroke-miterlimit:4;stroke-dasharray:none;stroke-opacity:1"
       d="m 1561.4817,905.27372 c -25.6484,-24.77403 -39.154,-64.64085 -36.2854,-107.11098 1.1542,-17.08848 5.4762,-41.13119 7.4709,-41.55958 2.936,-0.6305 19.8719,11.53135 28.6291,20.55894 16.7526,17.27011 30.5674,46.58493 31.7573,67.38815 1.3379,23.39292 -7.4619,45.83176 -24.4134,62.25283 -2.4716,2.39425 -3.274,2.22278 -7.1585,-1.52936 z"
       id="path5763" />
    <path
       style="fill:none;fill-opacity:1;stroke:#c36400;stroke-width:10;stroke-linecap:butt;stroke-linejoin:miter;stroke-miterlimit:4;stroke-dasharray:none;stroke-opacity:1"
       d="m 1692.8,1363.937 c 71.8888,-55.2764 164.7457,-21.8462 168.7832,37.5796 -57.0815,70.8935 -152.7793,14.5582 -168.7832,-37.5796 z"
       id="path5662-7-5"
       sodipodi:nodetypes="ccc" />
    <path
       style="fill:#c36400;fill-opacity:1;stroke:#c36400;stroke-width:12.1804;stroke-linejoin:round;stroke-miterlimit:4;stroke-dasharray:none;stroke-opacity:1"
       d="m 1851.3426,1400.0041 c -1.0131,-1.3094 -10.7603,-7.4887 -21.6602,-13.7316 -15.7253,-9.0063 -22.5193,-12.1258 -32.8979,-15.1033 -16.547,-4.7473 -36.7549,-7.6223 -53.0042,-7.5412 -17.0677,0.085 -43.0241,3.3927 -42.9616,5.4741 0.1,3.33 11.4943,19.0722 19.846,27.4185 11.2042,11.19 34.495,25.053 48.6054,28.919 24.3773,6.6789 50.3047,3.1503 68.1828,-9.2794 12.4273,-8.6403 16.2578,-13.0958 13.8897,-16.1561 z"
       id="path5759-4" />
    <path
       style="fill:none;fill-opacity:1;stroke:#c36400;stroke-width:10;stroke-linecap:butt;stroke-linejoin:miter;stroke-miterlimit:4;stroke-dasharray:none;stroke-opacity:1"
       d="m 1975.2013,1382.6433 c -55.2765,71.8887 -21.8463,164.7456 37.5797,168.7831 70.8934,-57.0817 14.5581,-152.7794 -37.5797,-168.7831 z"
       id="path5662-7-6"
       sodipodi:nodetypes="ccc" />
    <path
       style="fill:#c36400;fill-opacity:1;stroke:#c36400;stroke-width:12.1804;stroke-linejoin:round;stroke-miterlimit:4;stroke-dasharray:none;stroke-opacity:1"
       d="m 2011.2683,1541.1858 c -1.3093,-1.0132 -7.4886,-10.7603 -13.7315,-21.6601 -9.0063,-15.7254 -12.1259,-22.5194 -15.1034,-32.8979 -4.7472,-16.5471 -7.6223,-36.7549 -7.541,-53.0043 0.085,-17.0677 3.3925,-43.024 5.474,-42.9616 3.33,0.1 19.072,11.4943 27.4184,19.846 11.1934,11.2008 25.0529,34.495 28.9191,48.6055 6.679,24.3772 3.1502,50.3045 -9.2795,68.1827 -8.6402,12.4274 -13.0957,16.2579 -16.1561,13.8897 z"
       id="path5759-42" />
    <path
       style="fill:none;fill-opacity:1;stroke:#c36400;stroke-width:10;stroke-linecap:butt;stroke-linejoin:miter;stroke-miterlimit:4;stroke-dasharray:none;stroke-opacity:1"
       d="m 3246.5099,1052.6135 c 55.2764,71.8888 21.8462,164.7457 -37.5797,168.7832 -70.8935,-57.0816 -14.5581,-152.7793 37.5797,-168.7832 z"
       id="path5662-7-2"
       sodipodi:nodetypes="ccc" />
    <path
       style="fill:none;fill-opacity:1;stroke:#c36400;stroke-width:10;stroke-linecap:butt;stroke-linejoin:miter;stroke-miterlimit:4;stroke-dasharray:none;stroke-opacity:1"
       d="m 3461.3328,967.8565 c 11.9264,89.8957 -63.4534,153.597 -116.9365,127.3806 -32.8547,-84.8808 63.782,-139.5898 116.9365,-127.3806 z"
       id="path5662-7-4-2"
       sodipodi:nodetypes="ccc" />
    <path
       style="fill:none;fill-opacity:1;stroke:#c36400;stroke-width:10;stroke-linecap:butt;stroke-linejoin:miter;stroke-miterlimit:4;stroke-dasharray:none;stroke-opacity:1"
       d="m 3386.3548,756.5336 c 55.2764,71.8889 21.8462,164.7457 -37.5797,168.7832 -70.8934,-57.0816 -14.5581,-152.7793 37.5797,-168.7832 z"
       id="path5662-7-9-0"
       sodipodi:nodetypes="ccc" />
    <path
       style="fill:none;stroke:#c36400;stroke-width:10;stroke-linecap:butt;stroke-linejoin:miter;stroke-miterlimit:4;stroke-dasharray:none;stroke-opacity:1"
       d="m 3348.7751,925.3168 c -50.1509,68.5233 -56.0216,213.9188 -33.7746,269.2488"
       id="path5731-6"
       sodipodi:nodetypes="cc" />
    <path
       style="fill:none;stroke:#c36400;stroke-width:10;stroke-linecap:butt;stroke-linejoin:miter;stroke-miterlimit:4;stroke-dasharray:none;stroke-opacity:1"
       d="m 3344.3963,1095.2371 c -29.6278,288.0305 -382.0344,117.9418 -337.1532,320.3991"
       id="path5735-3"
       sodipodi:nodetypes="cc" />
    <path
       style="fill:none;stroke:#c36400;stroke-width:10;stroke-linecap:butt;stroke-linejoin:miter;stroke-miterlimit:4;stroke-dasharray:none;stroke-opacity:1"
       d="m 3006.0248,1410.3139 c 55.4339,237.6868 -235.2083,224.7466 -295.5037,167.2922"
       id="path5737-6"
       sodipodi:nodetypes="cc" />
    <path
       style="fill:none;stroke:#c36400;stroke-width:10;stroke-linecap:butt;stroke-linejoin:miter;stroke-miterlimit:4;stroke-dasharray:none;stroke-opacity:1"
       d="m 2903.4066,1557.7116 c -11.852,62.7072 -50.9978,54.5188 -50.9978,54.5188"
       id="path5739-1"
       sodipodi:nodetypes="cc" />
    <path
       style="fill:none;stroke:#c36400;stroke-width:10;stroke-linecap:butt;stroke-linejoin:miter;stroke-miterlimit:4;stroke-dasharray:none;stroke-opacity:1"
       d="m 3209.9301,1219.6647 c -20.042,40.4765 -43.0628,64.5378 -83.0633,72.1659"
       id="path5741-0"
       sodipodi:nodetypes="cc" />
    <path
       style="fill:none;stroke:#c36400;stroke-width:10;stroke-linecap:butt;stroke-linejoin:miter;stroke-miterlimit:4;stroke-dasharray:none;stroke-opacity:1"
       d="m 3050.688,1409.9209 c -30.7485,-7.3476 -35.5578,28.3222 -37.475,62.4478"
       id="path5743-5"
       sodipodi:nodetypes="cc" />
    <path
       style="fill:none;stroke:#c36400;stroke-width:10;stroke-linecap:butt;stroke-linejoin:miter;stroke-miterlimit:4;stroke-dasharray:none;stroke-opacity:1"
       d="m 3386.3548,756.5336 c 18.155,69.0129 9.4409,126.8585 -37.5797,168.7832"
       id="path5745-7"
       sodipodi:nodetypes="cc" />
    <path
       style="fill:none;stroke:#c36400;stroke-width:10;stroke-linecap:butt;stroke-linejoin:miter;stroke-miterlimit:4;stroke-dasharray:none;stroke-opacity:1"
       d="m 3461.3328,967.8565 c -58.3314,24.5368 -108.4677,56.6636 -116.9365,127.3806"
       id="path5747-4"
       sodipodi:nodetypes="cc" />
    <path
       style="fill:none;stroke:#c36400;stroke-width:10;stroke-linecap:butt;stroke-linejoin:miter;stroke-miterlimit:4;stroke-dasharray:none;stroke-opacity:1"
       d="m 3246.5099,1052.6135 c 11.8568,51.5991 9.4097,115.4154 -37.5797,168.7832"
       id="path5749-2"
       sodipodi:nodetypes="cc" />
    <path
       style="fill:#c36400;fill-opacity:1;stroke:#c36400;stroke-width:12.1804;stroke-linejoin:round;stroke-miterlimit:4;stroke-dasharray:none;stroke-opacity:1"
       d="m 3210.4428,1211.1562 c 1.3094,-1.0133 7.4886,-10.7603 13.7315,-21.6602 9.0063,-15.7253 12.1259,-22.5193 15.1034,-32.8978 4.7473,-16.5472 7.6223,-36.7549 7.5411,-53.0043 -0.085,-17.0678 -3.3926,-43.0241 -5.474,-42.9616 -3.33,0.1 -19.0721,11.4942 -27.4185,19.846 -11.1934,11.2007 -25.0529,34.4949 -28.919,48.6055 -6.679,24.3771 -3.1503,50.3044 9.2795,68.1826 8.6402,12.4274 13.0956,16.2579 16.156,13.8898 z"
       id="path5759-0" />
    <path
       style="fill:#c36400;fill-opacity:1;stroke:#c36400;stroke-width:12.1804;stroke-linejoin:round;stroke-miterlimit:4;stroke-dasharray:none;stroke-opacity:1"
       d="m 3366.813,1095.2164 c 20.2368,1.2194 42.9639,-9.433 60.2028,-28.2176 10.7196,-11.6811 23.205,-35.609 26.5857,-50.9517 2.3899,-10.8457 4.0022,-29.7059 3.1447,-36.7858 -0.4229,-3.4903 -1.3755,-3.2302 -16.9606,4.631 -21.3421,10.7652 -39.06,22.5901 -52.0232,34.7202 -9.1613,8.5725 -11.5995,11.8405 -21.0117,28.1637 -9.0462,15.6885 -11.0863,20.328 -13.5631,30.8474 -3.513,14.9196 -2.1803,16.6403 13.6254,17.5928 z"
       id="path5761-0" />
    <path
       style="fill:#c36400;fill-opacity:1;stroke:#c36400;stroke-width:12.1804;stroke-linejoin:round;stroke-miterlimit:4;stroke-dasharray:none;stroke-opacity:1"
       d="m 3352.7265,913.5739 c 25.6484,-24.7741 39.154,-64.6409 36.2854,-107.111 -1.1542,-17.0885 -5.4762,-41.1312 -7.4709,-41.5596 -2.936,-0.6305 -19.8719,11.5313 -28.6291,20.5589 -16.7526,17.2701 -30.5674,46.585 -31.7573,67.3882 -1.3379,23.3929 7.4619,45.8317 24.4134,62.2528 2.4716,2.3943 3.274,2.2228 7.1585,-1.5293 z"
       id="path5763-3" />
    <path
       style="fill:none;fill-opacity:1;stroke:#c36400;stroke-width:10;stroke-linecap:butt;stroke-linejoin:miter;stroke-miterlimit:4;stroke-dasharray:none;stroke-opacity:1"
       d="m 3221.4082,1372.2371 c -71.8888,-55.2764 -164.7457,-21.8462 -168.7832,37.5796 57.0815,70.8935 152.7793,14.5582 168.7832,-37.5796 z"
       id="path5662-7-5-3"
       sodipodi:nodetypes="ccc" />
    <path
       style="fill:#c36400;fill-opacity:1;stroke:#c36400;stroke-width:12.1804;stroke-linejoin:round;stroke-miterlimit:4;stroke-dasharray:none;stroke-opacity:1"
       d="m 3062.8656,1408.3042 c 1.0131,-1.3094 10.7603,-7.4887 21.6602,-13.7316 15.7253,-9.0063 22.5193,-12.1258 32.8979,-15.1033 16.547,-4.7473 36.7549,-7.6223 53.0042,-7.5412 17.0677,0.085 43.0241,3.3927 42.9616,5.4741 -0.1,3.33 -11.4943,19.0722 -19.846,27.4185 -11.2042,11.19 -34.495,25.053 -48.6054,28.919 -24.3773,6.6789 -50.3047,3.1503 -68.1828,-9.2794 -12.4273,-8.6403 -16.2578,-13.0958 -13.8897,-16.1561 z"
       id="path5759-4-9" />
    <path
       style="fill:none;fill-opacity:1;stroke:#c36400;stroke-width:10;stroke-linecap:butt;stroke-linejoin:miter;stroke-miterlimit:4;stroke-dasharray:none;stroke-opacity:1"
       d="m 2939.0069,1390.9434 c 55.2765,71.8887 21.8463,164.7456 -37.5797,168.7831 -70.8934,-57.0817 -14.5581,-152.7794 37.5797,-168.7831 z"
       id="path5662-7-6-0"
       sodipodi:nodetypes="ccc" />
    <path
       style="fill:#c36400;fill-opacity:1;stroke:#c36400;stroke-width:12.1804;stroke-linejoin:round;stroke-miterlimit:4;stroke-dasharray:none;stroke-opacity:1"
       d="m 2902.9399,1549.4859 c 1.3093,-1.0132 7.4886,-10.7603 13.7315,-21.6601 9.0063,-15.7254 12.1259,-22.5194 15.1034,-32.8979 4.7472,-16.5471 7.6223,-36.7549 7.541,-53.0043 -0.085,-17.0677 -3.3925,-43.024 -5.474,-42.9616 -3.33,0.1 -19.072,11.4943 -27.4184,19.846 -11.1934,11.2008 -25.0529,34.495 -28.9191,48.6055 -6.679,24.3772 -3.1502,50.3045 9.2795,68.1827 8.6402,12.4274 13.0957,16.2579 16.1561,13.8897 z"
       id="path5759-42-4" />
    <circle
       style="fill:#c36400;fill-opacity:1;stroke:#c36400;stroke-width:4.90398;stroke-linejoin:round;stroke-opacity:1"
       id="path899-3-9"
       cx="672.98352"
       cy="-2469.7131"
       r="814.12714"
       transform="rotate(90)" />
    <path
       style="fill:none;stroke:#ffc878;stroke-width:30;stroke-linecap:butt;stroke-linejoin:miter;stroke-miterlimit:4;stroke-dasharray:none;stroke-opacity:1"
       d="m 1787.9689,1123.0857 c 28.3131,-27.9724 68.2991,-46.8095 118.9656,-70.2142 -179.9848,-165.9288 -118.344,-399.4214 51.0826,-433.9284 -101.2062,-152.1597 27.6084,-366.85321 217.4694,-308.5279 12.2791,-293.96679 402.8643,-335.63457 512.5227,-30.3582 137.2045,-209.22204 400.7988,-204.66696 288.5979,92.2321 137.9212,4.3449 201.6061,207.0842 63.9473,295.169 128.957,73.9421 136.5206,280.5406 -14.5677,373.6841 90.3691,41.4421 99.0705,91.3558 93.5445,113.0132"
       id="path5516-6"
       sodipodi:nodetypes="ccccccccc"
       inkscape:connector-curvature="0" />
    <path
       style="fill:none;stroke:#ffc878;stroke-width:30;stroke-linecap:butt;stroke-linejoin:miter;stroke-miterlimit:4;stroke-dasharray:none;stroke-opacity:1"
       d="m 2803.656,481.0748 c -75.8437,72.07 -197.5772,83.7111 -388.2517,4.5676 100.8789,83.849 13.3122,260.2485 -95.921,269.4924 88.9178,43.8251 148.2285,305.234 -63.9474,392.8194 116.8607,34.0461 108.2579,269.5743 31.9737,324.3044"
       id="path5518-7"
       sodipodi:nodetypes="ccccc"
       inkscape:connector-curvature="0" />
    <path
       style="fill:none;stroke:#ffc878;stroke-width:30;stroke-linecap:butt;stroke-linejoin:miter;stroke-miterlimit:4;stroke-dasharray:none;stroke-opacity:1"
       d="m 2764.2056,525.0221 223.8157,414.8194 -146.1653,22.8383 36.5413,306.0337 -541.8495,-185.0037"
       id="path5522-2"
       sodipodi:nodetypes="ccccc"
       inkscape:connector-curvature="0" />
    <path
       style="fill:none;stroke:#ffc878;stroke-width:30;stroke-linecap:butt;stroke-linejoin:miter;stroke-miterlimit:4;stroke-dasharray:none;stroke-opacity:1"
       d="m 2681.656,1202.1722 27.4061,257.2217"
       id="path5526-1"
       sodipodi:nodetypes="cc"
       inkscape:connector-curvature="0" />
    <path
       style="fill:#ffc878;fill-opacity:1;stroke:#ffc878;stroke-width:4;stroke-miterlimit:4;stroke-dasharray:none;stroke-opacity:1"
       d="m 2263.2573,1462.2609 c -93.6815,-24.2325 -188.5706,-68.7023 -267.9899,-125.5935 -60.0865,-43.0423 -117.6241,-97.675 -163.7064,-155.4415 -15.2502,-19.1169 -34.9596,-46.1911 -34.1059,-46.8503 0.2912,-0.2248 5.662,-4.5413 11.935,-9.5922 20.3494,-16.3846 50.4283,-33.1047 103.0848,-57.3023 10.8681,-4.9943 20.0718,-9.3921 20.4526,-9.7729 0.3808,-0.3808 -8.8693,-10.0553 -20.5558,-21.4988 -32.9239,-32.2395 -53.6848,-59.9752 -70.5562,-94.2604 -10.2404,-20.8098 -18.8028,-45.268 -23.5467,-67.2603 -2.7795,-12.8853 -3.2104,-19.0577 -3.2584,-46.6691 -0.049,-28.2712 0.3113,-33.4569 3.2316,-46.5 13.2999,-59.4013 46.5416,-104.9346 94.9476,-130.0561 17.4994,-9.0818 29.7242,-13.3564 51.1112,-17.872 9.5755,-2.0217 17.6598,-3.9257 17.9651,-4.2311 0.3054,-0.3053 -4.6434,-8.8064 -10.9972,-18.8914 -13.8707,-22.0157 -21.5529,-39.2306 -27.2435,-61.0494 -5.6284,-21.5802 -7.0316,-55.2642 -3.2495,-78.0071 7.1614,-43.0643 26.8703,-80.3914 57.8485,-109.5605 46.6967,-43.9697 106.5969,-56.2917 174.3481,-35.8649 7.6565,2.3084 14.6105,4.2044 15.4533,4.2132 0.9787,0.01 2.1275,-8.7969 3.1799,-24.379 2.724,-40.3329 10.1802,-69.54862 25.716,-100.76274 29.8534,-59.98089 83.9102,-100.95996 152.0054,-115.23133 18.7027,-3.91972 53.4242,-5.29273 73.8571,-2.92056 92.4414,10.73205 171.9125,71.2494 216.0122,164.49369 4.1317,8.73597 11.2413,26.22309 15.7991,38.86024 4.5578,12.6372 8.6644,22.9786 9.1256,22.981 0.4613,0 7.2583,-9.7007 15.1046,-21.5625 18.9359,-28.62646 29.7222,-41.94866 51.8557,-64.04729 37.3427,-37.28369 77.0743,-61.53747 119.5844,-72.9991 16.3544,-4.40951 50.236,-4.76008 62.2254,-0.64384 13.747,4.71968 21.7254,9.54763 30.4056,18.39925 9.6726,9.86369 16.2283,22.02374 20.7835,38.5508 4.4419,16.11582 4.4735,55.03131 0.064,78.26538 -4.2988,22.6489 -11.4081,47.8051 -20.9054,73.9743 -4.4499,12.2611 -7.7597,22.6239 -7.3553,23.0283 0.4044,0.4044 9.2382,1.2959 19.6307,1.9811 27.2787,1.7986 42.795,6.5702 62.2555,19.1451 28.0977,18.156 49.6775,49.5064 59.3524,86.225 2.9605,11.2362 3.3413,15.7115 3.2488,38.1838 -0.097,23.4503 -0.4071,26.4586 -3.943,38.1838 -11.2884,37.4326 -32.4217,64.0371 -69.8449,87.9269 -7.9726,5.0895 -14.4956,9.6812 -14.4956,10.2038 0,0.5226 7.1594,5.1521 15.9099,10.2877 21.0223,12.338 31.142,20.109 44.0375,33.817 23.4849,24.9646 38.0464,53.4084 46.3672,90.5717 2.8453,12.7076 3.2775,18.3858 3.2171,42.2574 -0.058,22.9617 -0.5922,29.9887 -3.191,41.9858 -8.6371,39.8722 -27.1439,74.6772 -55.356,104.1055 -12.5083,13.0475 -31.633,28.6369 -44.6208,36.3723 -3.1113,1.853 -10.015,6.1404 -15.3417,9.5275 l -9.6849,6.1584 21.9064,10.3315 c 34.2038,16.1314 52.7962,28.4006 68.5381,45.2287 13.9607,14.924 22.3055,33.0648 21.3429,46.397 l -0.4265,5.9073 9.1588,2.316 c 5.0373,1.2738 10.0186,2.6048 11.0695,2.9577 4.6216,1.5522 -48.0162,63.4782 -83.4286,98.1498 -75.2755,73.7011 -157.0686,128.4904 -252.9437,169.4351 -20.2565,8.6508 -63.8241,24.9817 -64.7467,24.2696 -0.4867,-0.3756 -24.3361,-223.2128 -23.9294,-223.5853 0.1583,-0.145 44.0758,14.698 97.5946,32.9844 53.5188,18.2864 97.6712,32.8838 98.1164,32.4385 0.4453,-0.4453 -7.5941,-71.2129 -17.8653,-157.2615 -10.2712,-86.0485 -18.4672,-156.6217 -18.2134,-156.8293 0.2539,-0.2077 34.1906,-5.6185 75.4149,-12.0242 41.2243,-6.4056 75.2265,-11.9138 75.5603,-12.2404 0.3339,-0.3266 -0.3759,-2.6542 -1.5774,-5.1723 -2.1662,-4.5402 -222.6015,-413.5423 -227.367,-421.8635 l -2.4825,-4.3347 13.6878,-10.1738 c 7.5283,-5.5956 15.5285,-12.0951 17.7782,-14.4433 l 4.0904,-4.2694 -10.7911,-10.7911 -10.7911,-10.7911 -6.8355,6.0225 c -24.0777,21.2139 -56.1746,36.5511 -92.3955,44.1502 -17.3212,3.634 -64.9642,5.105 -87.8228,2.7116 -47.665,-4.9909 -105.7745,-20.2955 -164.2759,-43.2664 -11.4812,-4.5081 -21.0822,-7.9383 -21.3356,-7.6225 -0.2535,0.3158 -3.8235,6.1989 -7.9335,13.0736 l -7.4727,12.4994 5.0085,4.1285 c 12.7514,10.5107 26.9441,35.3074 31.2456,54.5904 2.9135,13.0608 2.9507,38.9567 0.078,54.102 -9.7109,51.1917 -45.2457,99.0921 -88.7536,119.6385 -14.746,6.9637 -23.6144,8.7817 -57.2242,11.7305 -16.5461,1.4518 -30.3812,2.9369 -30.7446,3.3003 -0.3634,0.3635 12.2197,6.9015 27.9625,14.5291 27.3062,13.2301 29.1188,14.3642 39.3908,24.6454 22.8645,22.885 39.4477,57.5625 48.2106,100.8148 2.85,14.0673 3.2425,20.0945 3.2076,49.2624 -0.038,31.4107 -0.2584,34.165 -4.023,50.2046 -14.044,59.8352 -47.434,104.6543 -100.4899,134.8866 -11.0221,6.2806 -20.8898,10.7332 -60.7416,27.4083 -4.574,1.9139 -7.756,3.8185 -7.071,4.2324 0.685,0.4139 11.4277,3.7422 23.8728,7.3961 27.5865,8.0996 39.2591,13.9852 50.9786,25.7047 36.2228,36.2228 51.612,112.8292 37.3969,186.1596 -7.2829,37.5698 -21.9387,69.0347 -39.5781,84.9708 -5.6922,5.1425 -5.8182,5.4382 -3.4379,8.0683 1.3589,1.5016 2.2079,2.9931 1.8866,3.3143 -0.3213,0.3213 -8.8557,-1.5554 -18.9654,-4.1705 z"
       id="path3797"
       inkscape:connector-curvature="0" />
    <path
       style="fill:none;stroke:#c36400;stroke-width:30.2;stroke-linecap:butt;stroke-linejoin:miter;stroke-miterlimit:4;stroke-dasharray:none;stroke-opacity:1"
       d="m 2720.25,570.1837 105.0564,-63.9473"
       id="path5556-1"
       sodipodi:nodetypes="cc"
       inkscape:connector-curvature="0" />
    <circle
       style="fill:none;fill-opacity:1;stroke:#c36400;stroke-width:30;stroke-linejoin:round;stroke-miterlimit:4;stroke-dasharray:none;stroke-opacity:1"
       id="path899-3-2-9"
       cx="681.69415"
       cy="-2458.2708"
       r="814.12714"
       transform="rotate(90)" />
  </g>
</svg>
