<?xml version="1.0" encoding="UTF-8" standalone="no"?>
<svg
   xmlns:dc="http://purl.org/dc/elements/1.1/"
   xmlns:cc="http://creativecommons.org/ns#"
   xmlns:rdf="http://www.w3.org/1999/02/22-rdf-syntax-ns#"
   xmlns:svg="http://www.w3.org/2000/svg"
   xmlns="http://www.w3.org/2000/svg"
   xmlns:sodipodi="http://sodipodi.sourceforge.net/DTD/sodipodi-0.dtd"
   xmlns:inkscape="http://www.inkscape.org/namespaces/inkscape"
   width="438.74643mm"
   height="438.74643mm"
   viewBox="0 0 438.74643 438.74643"
   version="1.1"
   id="svg6321"
   inkscape:version="0.92.5 (2060ec1f9f, 2020-04-08)"
   sodipodi:docname="logo.svg">
  <defs
     id="defs6315" />
  <sodipodi:namedview
     id="base"
     pagecolor="#ffffff"
     bordercolor="#666666"
     borderopacity="1.0"
     inkscape:pageopacity="0.0"
     inkscape:pageshadow="2"
     inkscape:zoom="0.70710678"
     inkscape:cx="909.87987"
     inkscape:cy="1094.1881"
     inkscape:document-units="mm"
     inkscape:current-layer="layer1"
     inkscape:document-rotation="0"
     showgrid="false"
     fit-margin-top="0"
     fit-margin-left="0"
     fit-margin-right="0"
     fit-margin-bottom="0"
     inkscape:window-width="4096"
     inkscape:window-height="2064"
     inkscape:window-x="0"
     inkscape:window-y="54"
     inkscape:window-maximized="1" />
  <metadata
     id="metadata6318">
    <rdf:RDF>
      <cc:Work
         rdf:about="">
        <dc:format>image/svg+xml</dc:format>
        <dc:type
           rdf:resource="http://purl.org/dc/dcmitype/StillImage" />
        <dc:title></dc:title>
      </cc:Work>
    </rdf:RDF>
  </metadata>
  <g
     inkscape:label="Layer 1"
     inkscape:groupmode="layer"
     id="layer1"
     transform="translate(122.61131,87.081543)">
    <circle
       style="fill:#c36400;fill-opacity:1;stroke:#c36400;stroke-width:1.29751003;stroke-linejoin:round;stroke-opacity:1"
       id="path899-3-9"
       cx="131.67299"
       cy="-99.674759"
       r="215.40446"
       transform="rotate(90)" />
    <path
       style="fill:none;stroke:#ffc878;stroke-width:7.9375;stroke-linecap:butt;stroke-linejoin:miter;stroke-miterlimit:4;stroke-dasharray:none;stroke-opacity:1"
       d="M -80.703425,250.76251 C -73.21225,243.36148 -62.632621,238.3775 -49.22711,232.185 -96.848088,188.28301 -80.53896,126.50477 -35.711506,117.37479 -62.488978,77.115847 -28.406771,20.311536 21.827268,35.743445 25.076113,-42.035273 128.41846,-53.059872 157.43224,27.711159 c 36.30203,-55.356656 106.04468,-54.151459 76.35819,24.40308 36.49165,1.149586 53.34161,54.791041 16.91939,78.096811 34.11987,19.56385 36.12107,74.22636 -3.85437,98.87058 23.91015,10.96489 26.2124,24.17122 24.75031,29.90141"
       id="path5516-6"
       sodipodi:nodetypes="ccccccccc"
       inkscape:connector-curvature="0" />
    <path
       style="fill:none;stroke:#ffc878;stroke-width:7.9375;stroke-linecap:butt;stroke-linejoin:miter;stroke-miterlimit:4;stroke-dasharray:none;stroke-opacity:1"
       d="M 188.03045,80.897117 C 167.96347,99.96565 135.75482,103.0457 85.305523,82.105646 111.9964,104.29069 88.827709,150.96306 59.926425,153.40884 c 23.526168,11.59539 39.21879,80.75983 -16.919416,103.93346 30.919393,9.00803 28.643236,71.32487 8.459708,85.80554"
       id="path5518-7"
       sodipodi:nodetypes="ccccc"
       inkscape:connector-curvature="0" />
    <path
       style="fill:none;stroke:#ffc878;stroke-width:7.9375;stroke-linecap:butt;stroke-linejoin:miter;stroke-miterlimit:4;stroke-dasharray:none;stroke-opacity:1"
       d="m 177.59253,92.52485 59.21791,109.7543 -38.67291,6.04263 9.66822,80.97142 -143.364342,-48.9489"
       id="path5522-2"
       sodipodi:nodetypes="ccccc"
       inkscape:connector-curvature="0" />
    <path
       style="fill:none;stroke:#ffc878;stroke-width:7.9375;stroke-linecap:butt;stroke-linejoin:miter;stroke-miterlimit:4;stroke-dasharray:none;stroke-opacity:1"
       d="m 155.75128,271.68748 7.2512,68.05658"
       id="path5526-1"
       sodipodi:nodetypes="cc"
       inkscape:connector-curvature="0" />
    <path
       style="fill:#ffc878;fill-opacity:1;stroke:#ffc878;stroke-width:4;stroke-miterlimit:4;stroke-dasharray:none;stroke-opacity:1"
       d="m 633.6804,1616.0661 c -93.68147,-24.2325 -188.57057,-68.7023 -267.98992,-125.5935 -60.08645,-43.0423 -117.62403,-97.675 -163.70638,-155.4415 -15.25017,-19.1169 -34.9596,-46.1911 -34.10594,-46.8503 0.29124,-0.2248 5.66202,-4.5413 11.93507,-9.5922 20.34941,-16.3846 50.42831,-33.1047 103.08478,-57.3023 10.8681,-4.9943 20.07175,-9.3921 20.45256,-9.7729 0.3808,-0.3808 -8.8693,-10.0553 -20.55578,-21.4988 -32.9239,-32.2395 -53.68478,-59.9752 -70.55624,-94.2604 -10.24038,-20.8098 -18.80275,-45.268 -23.54666,-67.2603 -2.77946,-12.8853 -3.21041,-19.0577 -3.25837,-46.66905 -0.0491,-28.27123 0.31129,-33.45695 3.23162,-46.50005 13.29989,-59.40128 46.54151,-104.9346 94.94752,-130.05608 17.49941,-9.08176 29.72424,-13.3564 51.11122,-17.87199 9.57549,-2.02174 17.65981,-3.92573 17.96515,-4.23107 0.30535,-0.30533 -4.64343,-8.80646 -10.99726,-18.8914 -13.87065,-22.01576 -21.55286,-39.23068 -27.2435,-61.04948 -5.6284,-21.58015 -7.03156,-55.26417 -3.24952,-78.00704 7.16142,-43.06435 26.87031,-80.39144 57.84851,-109.56053 46.69675,-43.96972 106.59695,-56.29172 174.34812,-35.86494 7.65656,2.30844 14.61056,4.20442 15.45332,4.21329 0.97874,0.01 2.1275,-8.79698 3.17988,-24.37907 2.72397,-40.33287 10.1802,-69.54859 25.71597,-100.76271 29.85344,-59.98089 83.91027,-100.95996 152.00542,-115.23133 18.70277,-3.91972 53.42423,-5.29273 73.8571,-2.92056 92.44146,10.73205 171.91252,71.2494 216.01223,164.49369 4.1317,8.73597 11.2413,26.22309 15.7991,38.86025 4.5578,12.63716 8.6644,22.9786 9.1256,22.98097 0.4613,0.003 7.2583,-9.70073 15.1046,-21.56244 18.9359,-28.6265 29.7222,-41.9487 51.8557,-64.04733 37.3427,-37.28369 77.0743,-61.53747 119.5844,-72.9991 16.3544,-4.40951 50.236,-4.76008 62.2254,-0.64384 13.747,4.71968 21.7254,9.54763 30.4056,18.39925 9.6726,9.86369 16.2283,22.02374 20.7835,38.5508 4.4419,16.11582 4.4735,55.03131 0.064,78.26534 -4.2988,22.64889 -11.4081,47.80512 -20.9054,73.97436 -4.4499,12.26112 -7.7597,22.62383 -7.3553,23.02824 0.4044,0.4044 9.2382,1.29591 19.6307,1.98112 27.2787,1.79857 42.795,6.57024 62.2555,19.14512 28.0977,18.15601 49.6775,49.50638 59.3524,86.22502 2.9605,11.23616 3.3413,15.71146 3.2488,38.18377 -0.097,23.45028 -0.4071,26.45863 -3.943,38.18377 -11.2884,37.43259 -32.4217,64.03709 -69.8449,87.92694 -7.9726,5.0895 -14.4956,9.68121 -14.4956,10.20382 0,0.5226 7.1594,5.15205 15.9099,10.28768 21.0223,12.33799 31.142,20.10905 44.0375,33.81703 23.4849,24.96458 38.0464,53.40841 46.3672,90.57166 2.8453,12.70764 3.2775,18.38582 3.2171,42.2574 -0.058,22.96169 -0.5922,29.98869 -3.191,41.98579 -8.6371,39.8722 -27.1439,74.6772 -55.356,104.1055 -12.5083,13.0475 -31.633,28.6369 -44.6208,36.3723 -3.1113,1.853 -10.015,6.1404 -15.3417,9.5275 l -9.6849,6.1584 21.9064,10.3315 c 34.2038,16.1314 52.7962,28.4006 68.5381,45.2287 13.9607,14.924 22.3055,33.0648 21.3429,46.397 l -0.4265,5.9073 9.1588,2.316 c 5.0373,1.2738 10.0186,2.6048 11.0695,2.9577 4.6216,1.5522 -48.0162,63.4782 -83.4286,98.1498 -75.2755,73.7011 -157.0686,128.4904 -252.9437,169.4351 -20.2565,8.6508 -63.8241,24.9817 -64.7467,24.2696 -0.4867,-0.3756 -24.3361,-223.2128 -23.9294,-223.5853 0.1583,-0.145 44.0758,14.698 97.5946,32.9844 53.5188,18.2864 97.6712,32.8838 98.1164,32.4385 0.4453,-0.4453 -7.5941,-71.2129 -17.8653,-157.2615 -10.2712,-86.0485 -18.4672,-156.6217 -18.2134,-156.8293 0.2539,-0.2077 34.1906,-5.6185 75.4149,-12.0242 41.2243,-6.4056 75.2265,-11.9138 75.5603,-12.2404 0.3339,-0.3266 -0.3759,-2.6542 -1.5774,-5.1723 -2.1662,-4.5402 -222.6015,-413.54232 -227.367,-421.86349 l -2.4825,-4.33467 13.6878,-10.17381 c 7.5283,-5.5956 15.5285,-12.09507 17.7782,-14.44328 l 4.0904,-4.26945 -10.7911,-10.79109 -10.7911,-10.7911 -6.8355,6.02256 c -24.0777,21.21388 -56.1746,36.55108 -92.3955,44.1502 -17.3212,3.63398 -64.96418,5.10495 -87.8228,2.71152 -47.66503,-4.99082 -105.77447,-20.29546 -164.27594,-43.26637 -11.48113,-4.50813 -21.08216,-7.93825 -21.3356,-7.62249 -0.25344,0.31576 -3.82351,6.19886 -7.9335,13.07357 l -7.4727,12.49944 5.00855,4.12847 c 12.75138,10.51076 26.94406,35.30737 31.24559,54.59041 2.91351,13.0608 2.95069,38.95666 0.0776,54.10196 -9.71091,51.19177 -45.24568,99.0921 -88.75362,119.63855 -14.74595,6.9637 -23.61436,8.78165 -57.22415,11.73052 -16.54611,1.45173 -30.38119,2.93687 -30.74463,3.3003 -0.36344,0.36344 12.21969,6.90152 27.96252,14.52908 27.30613,13.2301 29.11881,14.36423 39.39077,24.64539 22.86454,22.88503 39.44768,57.56255 48.21058,100.81478 2.85005,14.0673 3.2425,20.0945 3.20758,49.2624 -0.0376,31.4107 -0.25831,34.165 -4.02296,50.2046 -14.04399,59.8352 -47.43398,104.6543 -100.48988,134.8866 -11.02211,6.2806 -20.88982,10.7332 -60.74158,27.4083 -4.57407,1.9139 -7.75605,3.8185 -7.07107,4.2324 0.68499,0.4139 11.42777,3.7422 23.87285,7.3961 27.58651,8.0996 39.2591,13.9852 50.97859,25.7047 36.22284,36.2228 51.61202,112.8292 37.39693,186.1596 -7.2829,37.5698 -21.93878,69.0347 -39.57818,84.9708 -5.69215,5.1425 -5.81813,5.4382 -3.4379,8.0683 1.35893,1.5016 2.20791,2.9931 1.88665,3.3143 -0.32128,0.3213 -8.85569,-1.5554 -18.96537,-4.1705 z"
       id="path3797"
       inkscape:connector-curvature="0"
       transform="matrix(0.26458333,0,0,0.26458333,-122.61131,-87.081543)" />
    <path
       style="fill:none;stroke:#c36400;stroke-width:7.99041986;stroke-linecap:butt;stroke-linejoin:miter;stroke-miterlimit:4;stroke-dasharray:none;stroke-opacity:1"
       d="M 165.96261,104.47386 193.75878,87.554471"
       id="path5556-1"
       sodipodi:nodetypes="cc"
       inkscape:connector-curvature="0" />
    <circle
       style="fill:none;fill-opacity:1;stroke:#c36400;stroke-width:7.9375;stroke-linejoin:round;stroke-miterlimit:4;stroke-dasharray:none;stroke-opacity:1"
       id="path899-3-2-9"
       cx="132.29167"
       cy="-96.761902"
       r="215.40446"
       transform="rotate(90)" />
  </g>
</svg>
