<?xml version="1.0" encoding="UTF-8" standalone="no"?>
<svg
   xmlns:dc="http://purl.org/dc/elements/1.1/"
   xmlns:cc="http://creativecommons.org/ns#"
   xmlns:rdf="http://www.w3.org/1999/02/22-rdf-syntax-ns#"
   xmlns:svg="http://www.w3.org/2000/svg"
   xmlns="http://www.w3.org/2000/svg"
   xmlns:sodipodi="http://sodipodi.sourceforge.net/DTD/sodipodi-0.dtd"
   xmlns:inkscape="http://www.inkscape.org/namespaces/inkscape"
   width="438.74643mm"
   height="438.74643mm"
   viewBox="0 0 438.74643 438.74643"
   version="1.1"
   id="svg6321"
   inkscape:version="1.0.2 (e86c870879, 2021-01-15)"
   sodipodi:docname="coin.svg">
  <defs
     id="defs6315" />
  <sodipodi:namedview
     id="base"
     pagecolor="#ffffff"
     bordercolor="#666666"
     borderopacity="1.0"
     inkscape:pageopacity="0.0"
     inkscape:pageshadow="2"
     inkscape:zoom="0.35"
     inkscape:cx="863.41284"
     inkscape:cy="889.12709"
     inkscape:document-units="mm"
     inkscape:current-layer="layer1"
     inkscape:document-rotation="0"
     showgrid="false"
     fit-margin-top="0"
     fit-margin-left="0"
     fit-margin-right="0"
     fit-margin-bottom="0"
     inkscape:window-width="1920"
     inkscape:window-height="1008"
     inkscape:window-x="0"
     inkscape:window-y="50"
     inkscape:window-maximized="1" />
  <metadata
     id="metadata6318">
    <rdf:RDF>
      <cc:Work
         rdf:about="">
        <dc:format>image/svg+xml</dc:format>
        <dc:type
           rdf:resource="http://purl.org/dc/dcmitype/StillImage" />
        <dc:title></dc:title>
      </cc:Work>
    </rdf:RDF>
  </metadata>
  <g
     inkscape:label="Layer 1"
     inkscape:groupmode="layer"
     id="layer1"
     transform="translate(122.61131,87.081543)">
    <circle
       style="fill:#c36400;fill-opacity:1;stroke:#c36400;stroke-width:1.29751;stroke-linejoin:round;stroke-opacity:1"
       id="path899-3-9"
       cx="132.20215"
       cy="-97.55809"
       r="215.40446"
       transform="rotate(90)" />
    <path
       style="fill:none;stroke:#ffc878;stroke-width:7.9375;stroke-linecap:butt;stroke-linejoin:miter;stroke-miterlimit:4;stroke-dasharray:none;stroke-opacity:1"
       d="M -80.703425,250.76251 C -73.21225,243.36148 -62.632621,238.3775 -49.22711,232.185 -96.848088,188.28301 -80.53896,126.50477 -35.711506,117.37479 -73.179759,79.788542 -43.373865,19.776997 13.274643,23.181777 16.523488,-54.596941 110.5114,-73.372356 139.52518,7.3986747 175.82721,-47.957981 263.47692,-26.4403 233.79043,52.114239 c 36.49165,1.149586 53.34161,54.791041 16.91939,78.096811 34.11987,19.56385 36.12107,74.22636 -3.85437,98.87058 23.91015,10.96489 26.2124,24.17122 24.75031,29.90141"
       id="path5516-6"
       sodipodi:nodetypes="ccccccccc" />
    <path
       style="fill:none;stroke:#ffc878;stroke-width:7.9375;stroke-linecap:butt;stroke-linejoin:miter;stroke-miterlimit:4;stroke-dasharray:none;stroke-opacity:1"
       d="M 188.03045,80.897117 C 167.96347,99.96565 135.75482,103.0457 85.305523,82.105646 111.9964,104.29069 88.827709,150.96306 59.926425,153.40884 c 23.526168,11.59539 39.21879,80.75983 -16.919416,103.93346 30.919393,9.00803 28.643236,71.32487 8.459708,85.80554"
       id="path5518-7"
       sodipodi:nodetypes="ccccc" />
    <path
       style="fill:none;stroke:#ffc878;stroke-width:7.9375;stroke-linecap:butt;stroke-linejoin:miter;stroke-miterlimit:4;stroke-dasharray:none;stroke-opacity:1"
       d="m 177.59253,92.52485 59.21791,109.7543 -38.67291,6.04263 9.66822,80.97142 -143.364342,-48.9489"
       id="path5522-2"
       sodipodi:nodetypes="ccccc" />
    <path
       style="fill:none;stroke:#ffc878;stroke-width:7.9375;stroke-linecap:butt;stroke-linejoin:miter;stroke-miterlimit:4;stroke-dasharray:none;stroke-opacity:1"
       d="m 155.75128,271.68748 7.2512,68.05658"
       id="path5526-1"
       sodipodi:nodetypes="cc" />
    <path
       style="fill:#ffc878;fill-opacity:1;stroke:#ffc878;stroke-width:3.175;stroke-linejoin:round;stroke-miterlimit:4;stroke-dasharray:none;stroke-opacity:1"
       d="m 47.478838,342.14163 c -0.443124,-0.15065 -4.975119,-1.42759 -10.071073,-2.83763 -43.6363797,-12.07402 -84.542841,-40.48768 -112.904719,-78.42366 -7.229528,-9.67005 -9.072033,-13.14154 -4.80523,-9.05367 l 2.33725,2.23922 4.610761,-3.7555 c 2.618502,-2.1328 10.311739,-6.5551 17.804897,-10.23477 7.25678,-3.56357 13.194136,-6.65647 13.194136,-6.87308 0,-0.21662 -2.991115,-3.36833 -6.646915,-7.00381 -11.157426,-11.09544 -18.510038,-23.25537 -22.507654,-37.22368 -1.487726,-5.1984 -1.811841,-8.2751 -1.77337,-16.83482 0.04069,-9.05844 0.333295,-11.34498 2.165138,-16.9194 6.057424,-18.43344 20.376462,-31.16844 38.11852,-33.90167 5.989082,-0.92265 6.03004,-1.40696 0.58854,-6.95989 -6.414082,-6.54546 -11.160363,-14.03631 -13.396251,-21.142783 -2.365904,-7.519742 -2.494254,-21.206722 -0.260932,-27.829621 8.05643,-23.891316 28.447073,-37.867232 55.2477241,-37.867232 h 7.9224189 l 0.536707,-5.841222 C 18.870527,8.2728766 21.039105,0.42107785 26.372735,-9.9447573 31.235221,-19.394938 41.785666,-29.816823 51.104423,-34.375062 c 9.099815,-4.451151 14.758882,-5.78291 24.573415,-5.78291 9.076664,0 15.170071,1.290023 22.744139,4.815136 16.647793,7.748169 28.496183,21.802259 36.864683,43.7274329 1.64907,4.3204901 3.12222,7.8554371 3.27364,7.8554371 0.15145,0 2.53304,-3.296322 5.29246,-7.3251619 14.78219,-21.5825831 39.35426,-32.1879251 61.47165,-26.5312491 11.73226,3.000607 20.58548,9.7216167 25.41926,19.2972551 6.2597,12.4004119 6.25721,27.8052709 -0.007,46.0765279 -1.30948,3.819176 -2.38088,7.307538 -2.38088,7.751913 0,0.444384 2.81702,0.971037 6.26001,1.170356 28.80204,1.667317 42.53064,40.063152 22.35023,62.508625 -1.97101,2.19224 -5.95162,5.52867 -8.84579,7.41429 -2.89417,1.88563 -5.26211,3.52957 -5.26211,3.65322 0,0.12365 2.68325,1.89721 5.96276,3.94124 10.80881,6.73684 18.64508,17.45751 21.8454,29.88632 1.61515,6.27272 1.65851,18.71329 0.0888,25.4771 -3.4335,14.7945 -12.48204,27.0569 -26.57706,36.01667 l -6.33412,4.02643 8.35631,4.07093 c 13.19654,6.42898 21.5995,15.31181 21.62633,22.86133 0.006,1.67587 0.40042,2.21562 1.61925,2.21562 0.88624,0 1.60263,0.4532 1.59197,1.00711 -0.0344,1.78464 -11.39857,15.2446 -20.92844,24.78804 -21.24953,21.2798 -46.36386,37.74154 -74.3045,48.70445 -7.82719,3.0711 -9.10894,3.37521 -9.26443,2.19813 -0.0993,-0.75136 -1.2776,-13.14926 -2.61853,-27.5509 -1.34094,-14.40162 -2.60356,-27.1484 -2.80586,-28.32616 l -0.36782,-2.14141 13.86308,4.83719 c 30.36358,10.59463 37.61444,13.02203 37.89553,12.68651 0.16126,-0.19246 -1.94138,-18.84042 -4.67257,-41.43991 -2.73116,-22.5995 -4.88074,-41.21105 -4.77686,-41.35904 0.1039,-0.14798 8.93283,-1.64097 19.61986,-3.31774 10.68702,-1.67677 19.64613,-3.26385 19.90912,-3.52684 0.38709,-0.38709 -54.09983,-102.49387 -59.46658,-111.438557 l -1.52006,-2.533446 4.0758,-2.928163 c 2.24168,-1.610492 4.28876,-3.483197 4.54909,-4.161559 0.45675,-1.190271 -3.31753,-5.971316 -4.7139,-5.971316 -0.35639,0 -2.34442,1.294937 -4.41788,2.877635 -18.9307,14.450121 -49.0438,14.443416 -86.492394,-0.01926 -4.070985,-1.572102 -7.498292,-2.858379 -7.616507,-2.858379 -0.11819,0 -1.185651,1.466879 -2.372122,3.25973 l -2.157175,3.259741 3.23178,3.671504 c 9.484677,10.775169 9.164399,28.41985 -0.785945,43.29684 -4.744535,7.09367 -8.96747,10.96891 -15.662407,14.37285 -4.069292,2.06897 -6.318382,2.58544 -14.300941,3.284 -5.209725,0.4559 -9.470575,1.04064 -9.468564,1.29941 0.0026,0.25877 3.823097,2.40833 8.491326,4.77681 7.141845,3.62349 8.979614,4.96491 11.589993,8.45972 6.989472,9.35749 10.42035,19.61814 11.101123,33.19975 0.571341,11.39839 -1.043596,19.93638 -5.554451,29.36584 -2.691315,5.62594 -4.533688,8.09588 -10.321792,13.83768 -6.108568,6.0597 -8.157925,7.51909 -15.40764,10.97204 -4.599041,2.19048 -9.721506,4.46585 -11.383248,5.05637 -1.661716,0.59052 -3.021304,1.2832 -3.021304,1.53929 0,0.25609 3.159681,1.35189 7.021539,2.4351 8.115856,2.27642 12.190386,5.02419 16.413427,11.06892 8.22915,11.77898 10.139945,35.03745 4.3062,52.41589 -2.043907,6.08862 -6.954282,14.46818 -8.920427,15.22267 -0.784966,0.30123 -0.85008,0.81285 -0.246857,1.93995 0.810922,1.51524 0.147717,1.87941 -2.05732,1.12969 z"
       id="path5605-0" />
    <path
       style="fill:none;stroke:#c36400;stroke-width:7.99042;stroke-linecap:butt;stroke-linejoin:miter;stroke-miterlimit:4;stroke-dasharray:none;stroke-opacity:1"
       d="M 161.72928,107.11971 189.52545,90.200306"
       id="path5556-1"
       sodipodi:nodetypes="cc" />
    <circle
       style="fill:none;fill-opacity:1;stroke:#c36400;stroke-width:7.9375;stroke-linejoin:round;stroke-miterlimit:4;stroke-dasharray:none;stroke-opacity:1"
       id="path899-3-2-9"
       cx="132.29167"
       cy="-96.761902"
       r="215.40446"
       transform="rotate(90)" />
  </g>
</svg>
